<?xml version="1.0" encoding="utf-8"?>
<svg xmlns="http://www.w3.org/2000/svg" viewBox="121.0532 72.0226 839.3466 1205.7762" width="839.347px" height="1205.78px">
  <g>
    <g>
      <path class="st0" d="M206.6,560.5c-3.3,0-8-2.7-11.8-5.9-7.6-6.4-30.9-48.4-34.4-56.8-3.7-9-14.8-36.2-9.8-59.6l.3-1.4c1.8-8.5,5.9-28.4,16.9-33.8,4.9-2.4,7.4-1.9,11.2-1,1.3.3,2.8.6,4.6.9,22.8,3.3,38.1,29.6,41.7,38.5.3.7,0,1.4-.7,1.7-.7.3-1.4,0-1.7-.7-4.3-10.8-19.6-34-39.7-36.9-1.9-.3-3.4-.6-4.8-.9-3.6-.8-5.4-1.2-9.5.8-9.8,4.8-13.9,24.5-15.4,32l-.3,1.5c-4.8,22.6,6.1,49.3,9.7,58,3.6,8.8,26.6,50,33.6,55.8,5.3,4.4,9.7,5.8,10.9,5.1.4-.3.4-1.2.3-1.7-1.3-7.3-5.5-11.6-9.5-15.7-2.3-2.4-4.5-4.6-6.1-7.4-.8-1.3-2.1-3.3-3.7-5.7-5.9-8.8-14.8-22.1-15.8-30.4-.9-7.4-3.6-31.6,1-34.4.5-.3,1.6-.7,3.1.3.6.4.7,1.2.3,1.8-.4.6-1.2.7-1.8.3-.2-.1-.3-.2-.3-.2-1.8,1.2-1.7,15.8.3,31.9,1,7.7,10,21.2,15.4,29.3,1.7,2.5,3,4.5,3.8,5.9,1.4,2.5,3.5,4.6,5.7,6.9,4.1,4.2,8.8,9,10.2,17.1.5,2.8-.7,3.9-1.5,4.4-.6.3-1.3.5-2.1.5Z" fill="rgb(255, 255, 255)"/>
      <path class="st0" d="M250.7,598.9c-1,0-2.1,0-3.5-.2-28.6-3.2-40.3-7.7-68.6-48.1-26.7-38.2-32.2-55.9-39.2-90.1-3.6-18,3.4-46.8,15-61.6,5.3-6.8,11.3-10.5,17.5-10.8,21.1-.9,28.6,2.7,38.2,7.4,4.5,2.2,9.1,4.5,15.9,6.6,6.7,2.1,18.5-.1,24.2-1.2,3-.6,3.8-.7,4.4-.6.9.2,1.5,1.1,1.3,2.1-.2.9-1,1.4-1.9,1.3-.4,0-1.8.3-3.2.5-6.4,1.2-18.3,3.5-25.9,1.1-7-2.2-12-4.6-16.4-6.8-9.1-4.4-16.3-7.9-36.5-7-5.1.2-10.3,3.5-14.9,9.4-11.1,14.2-17.8,41.7-14.3,58.8,6.8,33.7,12.2,51.2,38.6,88.8,28.4,40.5,39.2,43.6,66.2,46.7,5.2.6,6.1,0,8.6-1.8,1.7-1.2,4.1-2.9,8.7-4.8,1.8-3.1,0-25.7-.7-33.2-.4-5-.5-6.3-.4-6.8.1-.9,1-1.6,1.9-1.5.9.1,1.6,1,1.5,1.9,0,.4.2,3.2.5,6.1,2.5,29.7,1.7,35.5-1.2,36.6-4.4,1.8-6.5,3.3-8.3,4.5-2.4,1.7-4,2.6-7.6,2.6ZM253.9,403.6s0,0,0,0c0,0,0,0,0,0Z" fill="rgb(255, 255, 255)"/>
      <path class="st0" d="M254.3,541.2c-9.3,0-11.3-3.2-13.8-7.3-1.2-2-2.5-4.2-5-6.5-2.5-2.3-3.7-2.1-6.6-1.7-4.3.7-11.4,1.8-27.9-5.3-4.7-2-6.9-7.5-7.8-10.6-1.7-5.7-1.4-11.8.6-14.7,1.5-2.2,3.3-6.1,5.1-10.2,3.8-8.6,8.2-18.3,13.7-20.1,6.9-2.2,13.6-12.8,13.7-13,.4-.6,1.2-.8,1.8-.4.6.4.8,1.2.4,1.8-.3.5-7.3,11.6-15.1,14.1-4.4,1.4-8.6,11-12.1,18.7-1.9,4.2-3.7,8.2-5.3,10.6-1.5,2.2-1.6,7.6-.2,12.5,1.3,4.5,3.6,7.7,6.3,8.9,15.8,6.8,22.3,5.8,26.5,5.1,3.1-.5,5.4-.8,8.8,2.4,2.7,2.6,4.2,5,5.4,7,2.3,3.8,3.7,6.1,11.5,6.1h0c.4-2.1-2.5-12-5.1-14.6-1.4-1.5-3-2.1-4.6-2.8-3-1.3-6.3-2.7-9.5-8.8-2.1-4.1.2-10.1,1.4-13.3.2-.5.4-.9.4-1.2.1-.4-.2-1.4-.4-2.4-.7-2.7-1.8-6.7,0-12,1.7-5.1,5.7-12,8.4-14.5.5-.5,1.4-.5,1.8,0,.5.5.5,1.4,0,1.8-2.4,2.2-6.2,8.7-7.7,13.4-1.5,4.5-.6,8,0,10.5.4,1.5.7,2.7.4,3.8-.1.3-.3.8-.5,1.3-1,2.6-3.1,8.1-1.5,11.1,2.7,5.3,5.4,6.4,8.2,7.6,1.8.8,3.7,1.6,5.5,3.4,3,3,6.9,14.4,5.6,17.7-.4.9-1.1,1.4-1.9,1.4-.1,0-.3,0-.4,0Z" fill="rgb(255, 255, 255)"/>
      <path class="st0" d="M549.5,353.3c16,0,34.4,2.8,50.4,7.6,17.3,5.2,26.6,11.1,29.5,14.9,2.3,3,4.9,10.1,5.1,12.1,1.9,20.5-8.7,62.1-22.6,78.3-3,3.5-5.4,5.5-7.5,6.1-1.7.5-6.4,1.1-14.1,1.1-20.7,0-50.5-4.3-66.5-16.4-3.1-2.4-6.1-6-8.7-10.9-1.8-3.3-3.4-18.4-3-40.6.4-20.1,2.4-37.8,4.8-43.2,1.1-2.5,6.3-6.1,8-6.5,7.2-1.7,15.5-2.5,24.5-2.5M549.5,348.6c-8.9,0-17.7.8-25.6,2.7-2.8.7-9.3,5-11.2,9.1-5.9,13.1-7.4,77.4-1.7,87.9,2.8,5.2,6.1,9.5,10,12.4,17.6,13.3,49.6,17.3,69.3,17.3s12.8-.5,15.4-1.3c3.2-1,6.2-3.5,9.7-7.5,14.9-17.3,25.7-59.9,23.7-81.7-.3-2.8-3.2-10.8-6-14.5-8.9-11.6-48.1-24.3-83.6-24.3h0Z" fill="rgb(255, 255, 255)"/>
      <path class="st0" d="M612,654.4c-.5,0-1,0-1.4,0-16.8-1.8-32.5-6.5-40.3-9.2-9.1-3.1-20.2-7.6-21.4-11.2l-.6-2.1,2-.9c13.8-6.3,56.1-22.1,75.1-24.3,3.9-.4,9.9,2.4,14.6,5.1,4.3-2.6,11.7-4.7,17.5-4,3.1.4,5.4,1.5,6.8,3.3,3.6,4.6-2.1,12.4-6.6,18.7-.7,1-1.6,2.3-2.1,3,.6,1,2.1,3.1,3.1,4.3,3.1,4.1,4.7,6.2,3.8,8.3-2.6,5.8-6.6,5.2-10.2,4.7-2-.3-4.3-.6-7.1-.1-8,1.4-26.5,4.4-33.3,4.4ZM556,633.8c7.8,4.3,31.6,13.2,55.2,15.6,2.4.2,12.5-.7,33.3-4.3,3.6-.6,6.4-.2,8.6.1,3,.4,3.7.5,4.6-1.1-.5-1-1.9-2.8-2.9-4-3-4-4.4-6-4.2-7.8.1-1.1.9-2.3,3.1-5.4,6.9-9.7,7.2-12.2,6.7-12.8-.8-1-2.3-1.3-3.5-1.5-5-.6-12.3,1.6-15.3,4l-1.3,1.1-1.5-.9c-5.7-3.5-10.7-5.5-12.9-5.2-17,2-53.7,15.4-70,22.3ZM553.5,632.1h0Z" fill="rgb(255, 255, 255)"/>
      <path class="st0" d="M680.6,555.9c-5.9,0-10.9-.7-15-2-1-.3-1.5-1.4-1.2-2.3.3-1,1.4-1.5,2.3-1.2,7,2.3,17.1,2.5,30.2.4,16.6-2.6,24-19.6,24.1-24.6.3-16.7-24.6-66.9-33.9-85.8-1.6-3.3-2.9-5.9-3.6-7.4-3.2-6.9-16.4-22.2-20.8-27-.7-.8-.6-1.9.1-2.6.7-.7,1.9-.6,2.6.1,3.4,3.6,17.8,20.1,21.5,27.9.7,1.5,2,4,3.6,7.3,10.4,20.9,34.6,69.8,34.3,87.5-.1,6.6-8.7,25.3-27.3,28.2-6.3,1-11.9,1.5-16.9,1.5Z" fill="rgb(255, 255, 255)"/>
      <path class="st0" d="M600.2,550c-5.6,0-10.5-1.4-13.6-3.7-3.3-2.6-8.3-11.6-9.3-16.1-.2-1,.4-2,1.4-2.2,1-.2,2,.4,2.2,1.4.8,3.7,5.3,11.9,7.9,14,4.6,3.6,17,5,28.3-1.7.7-.4,1.7-1.2,2.8-2.1,4.5-3.7,12.1-9.9,24.9-10,0,0,0,0,0,0,7.1,0,27.2,6.4,29.4,11.9.5,1.3.2,2.6-.8,3.6-6.1,5.8-23-3.7-26-5.8-1.1-.8-2.8-1.9-2.1-3.6.1-.2.7-1.5,2.5-1.1.8.2,1.4.8,1.5,1.5,2.8,2,11.9,7,18.1,7.2,1,0,2.4,0,3.2-.7-1.9-2.9-18.4-9.3-25.8-9.3s0,0-.1,0c-11.4,0-18.1,5.6-22.6,9.2-1.2,1-2.3,1.9-3.3,2.4-6.2,3.7-12.9,5.2-18.9,5.2ZM647.7,536.1l-.4,1.8h0s.3-1.8.3-1.8Z" fill="rgb(255, 255, 255)"/>
      <path class="st0" d="M238.4,404.7l-13.5-6.1,3.8-2.5c22.7-14.9,244.1-54.5,253.6-56.2l3.3-.6-3.7,28.3-1.2.6c-4.6,2.3-25.8,4.6-65.9,8.8-59.6,6.2-141.3,14.8-175.4,27.3l-.9.3ZM235.7,398.1l2.9,1.3c35.2-12.5,116.3-21,175.6-27.2,30.1-3.2,56.4-5.9,63.1-7.9l2.4-18.9c-26.9,4.8-208.4,37.9-244,52.7Z" fill="rgb(255, 255, 255)"/>
      <path class="st0" d="M531.5,406.7c-3,0-5.7-1.7-7.8-4.8-1.9-2.9-3-6.7-3-10.7,0-8.7,4.6-15.5,10.6-15.6h0c6,0,10.7,6.8,10.8,15.4,0,8.7-4.6,15.5-10.6,15.6h0ZM531.4,379.1s0,0,0,0c-3.9,0-7.2,5.6-7.2,12.1,0,3.3.9,6.5,2.4,8.8,1.4,2.1,3.1,3.2,4.9,3.2s0,0,0,0c3.9,0,7.2-5.6,7.2-12.1,0-6.5-3.4-12-7.3-12Z" fill="rgb(255, 255, 255)"/>
      <path class="st0" d="M532.4,399.7c-2.3,0-4.3-2.3-4.7-5.6-.5-3.5,1-6.4,3.5-6.8,1.3-.2,2.6.4,3.6,1.7.8,1,1.3,2.4,1.6,3.9.5,3.5-1,6.4-3.5,6.8-.2,0-.3,0-.5,0ZM531.6,390.7c-.2.1-.7,1.2-.5,2.9.2,1.7,1.1,2.6,1.3,2.6.2-.1.7-1.2.5-2.9-.2-1.7-1-2.6-1.3-2.6Z" fill="rgb(255, 255, 255)"/>
      <path class="st0" d="M445.7,395.9c-3.4,0-8.2-3-12.8-6-3-1.9-5.9-3.8-8-4.5-.6-.2-.9-.9-.7-1.5s.9-.9,1.5-.7c2.4.9,5.3,2.7,8.5,4.8,4.4,2.8,9.4,6,12,5.6,4.6-.7,11.6-7.6,11.6-7.7h.2c25.5-17.3,46.7-23,54.7-25.1,1.4-.4,2.7-.7,3-.9,2.4-1.3,17.2-6.1,24-7.1,2.3-.3,4.3,2.3,6.5,5,1.1,1.5,2.3,3,3.3,3.8.5.4.6,1.1.2,1.6-.4.5-1.1.6-1.6.2-1.3-1-2.5-2.6-3.7-4.2-1.3-1.7-3.3-4.3-4.3-4.2-6.8,1-21.3,5.7-23.2,6.8-.5.3-1.4.5-3.5,1.1-7.9,2.1-28.8,7.7-53.9,24.6-.9.8-7.7,7.4-12.8,8.2-.3,0-.5,0-.8,0Z" fill="rgb(255, 255, 255)"/>
      <path class="st0" d="M629,851.8c-.8,0-1.6,0-2.4-.1-7.6-.9-15.2-.7-24.1-.5-18.5.4-41.5,1-79.7-7.4-23.9-5.2-103.5-42.3-195.2-95.4-20.1-11.6-34.9-30.4-44.1-55.9-8.4-23.2-9-43.8-9-47.7,0-2.1,0-6.7.2-13.5,1-45.9,4-185.7-14.8-221.5-1.1-2.2-.8-4.6,1-6.4,7.6-8.1,49.7-8.9,60.1-4.3,4,1.8,4.5,4.4,4.3,5.9-.7,8.6.8,71.8,7.6,93.1,1,3.2,2.3,7.2,3.7,11.7,4.1,13.3,9.7,31.4,15.3,46.6,8.8,24,13,27.7,14,28.2,9.7,5.1,109.5,47.9,123.7,51.5,3.9,1,7.3-4.5,12.6-13.6,6.8-11.7,16-27.6,34.1-31.1,32.5-6.3,44.1-16.8,53.5-25.3,6.8-6.1,12.6-11.4,23.8-12.7,9-1.1,57.7.2,65.5,9.7h0c4.9,6.1,5.2,8.8,3.8,12.6-.7,2-1.7,4.8,4,15.6,2.1,4.1,1.7,8.4,1.1,13.8-.9,8.2-2.1,19.4,4.2,38.2,3.4,10.2-2.1,29.2-7,46.1-.9,3-1.7,6-2.5,8.7-.3,1.4,1.9,7,3.6,11.4,5.4,13.9,13.6,35,6.7,55.2-1.9,5.6-5,21.9-7.4,35-1.3,7.1-2.5,13.2-3.3,17.1-1.4,6.5-12.7,16.1-21.9,22.3-5.9,4-20.1,12.7-31.4,12.7ZM613.1,844.4c4.9,0,9.6.2,14.3.8,14.8,1.8,46.9-22.5,48.5-29.7.8-3.8,2-10.1,3.3-16.9,2.6-14,5.6-29.9,7.7-35.9,6.1-18-1.6-37.7-6.6-50.8-3-7.6-4.7-12.2-3.8-15.5.8-2.8,1.6-5.8,2.5-8.8,4.4-15.1,9.9-33.9,7.1-42.1-6.8-20.1-5.4-32.7-4.5-41,.5-4.7.8-7.8-.4-10.1-6.4-12.3-5.7-16.9-4.3-20.8.5-1.4.7-2.1-2.7-6.3-4.6-5.7-46.5-8.9-59.7-7.3-9,1.1-13.7,5.3-20.1,11.1-9.5,8.6-22.4,20.3-56.7,26.9-15.2,2.9-23.2,16.8-29.7,28-5.6,9.7-10.9,18.9-19.8,16.6-15.2-3.8-115-46.7-125.2-52.1-8.2-4.3-18.1-32.1-32.5-78.7-1.4-4.5-2.6-8.5-3.6-11.7-7-21.9-8.6-83.3-8-94.9-2.8-1.7-15.4-3.2-31.5-2.1-12.6.9-19.3,3-21.2,4.3,19.1,38.3,16.1,177.9,15.2,224-.1,6.6-.2,11.3-.2,13.3,0,2.8,1.2,69.8,49.9,98,90,52,170.4,89.6,193.3,94.7,37.4,8.2,60,7.6,78.1,7.2,3.8,0,7.4-.2,10.8-.2Z" fill="rgb(255, 255, 255)"/>
      <path class="st0" d="M686.4,418.6c-.6,0-1.2-.3-1.5-.9-.5-.8-.1-1.9.7-2.3,13.7-7.3,13.6-14.8,12-23.7-.4-2.2-.9-5.5-1.6-9.3-2-11.9-4.9-29.9-7.3-39.7-1.7-6.9-8.7-21.5-15.5-35.5-5.8-12.1-11.8-24.6-15.1-33.4-.3-.9.1-1.9,1-2.2.9-.3,1.9.1,2.2,1,3.2,8.6,9.2,21.1,15,33.1,7.2,14.8,13.9,28.9,15.7,36.2,2.4,10,5.4,28,7.4,40,.6,3.8,1.2,7.1,1.6,9.3,1.6,9.2,1.9,18.9-13.8,27.3-.3.1-.5.2-.8.2Z" fill="rgb(255, 255, 255)"/>
      <path class="st0" d="M143.5,413.3c-1.2,0-2.3-.7-2.9-1.8-1-2-1-5-1-14.4,0-17.6.2-50.3-9.3-94.3-6.4-29.2,23.1-94,46.1-111.1,3.6-2.7,7.4-10.4,11.5-18.5,5.8-11.6,12.3-24.7,21.7-30.6,1.5-1,2.6-1.7,3.5-2.3,4.3-2.9,5-3,13.2-3.9l3.2-.4c5.2-.6,9.5-4.5,15.6-9.8,8-7,17.9-15.8,35.1-21.7,47.9-16.4,111.5-23.2,206.1-22.1,0,0,0,0,0,0,4.1,0,25.4-6.7,32.7-9.8,2.3-1,4-.5,5,0,2.7,1.4,3.3,4.5,4,7.8.4,1.8.8,3.7,1.5,5.2,1.5,3.3,13.6,8.2,25,8.9,7.5.5,16-7,18.7-10l.5-.5.6-.3c11.7-5.1,18.8-3.4,22.2-2.6,1.6.4,5.1,1.6,10.7,3.4,5.2,1.7,11.1,3.7,15,4.9,4,1.2,13.5,1.7,21.2,2.2,8.8.5,12.2.8,13.9,1.5,16.9,7.2,17.3,21.3,17.7,30.7,0,2.6.2,5.1.6,6.6,2.2,7.1,8.6,16.9,15.6,23.9,5.5,5.5,5.2,11.2,5,17.3-.2,4.6-.4,9.8,1.5,16.4.1.5.3.9.4,1.4,1.4,4.2,2.1,7.9-2,17.1-.7,1.5-.9,2.3-1,2.8.7.2,2,.4,3,.6,2.5.4,5.5.8,8.7,2.2,2.8,1.3,3.5,3.1,3.6,4.5.2,3.7-3.9,6.2-8.7,9-.8.5-2,1.2-3,1.8,11.6,5.8,7.7,21.2,5.1,31.6-1,4-2.5,10.1-1.8,11.5,6.3,5.5,9.1,12.9,8.1,21.9-.5,5.1-4,7.5-6.6,9.2-2.2,1.5-3.6,2.5-4.1,4.5-.4,1.3-.6,2.6-.8,3.9-.8,4.6-1.7,9.3-8.3,16.1l-3,3.1-2.2-3.7c-4-6.9-6.3-15.1-8.6-22.9-3.4-11.9-6.6-23.2-15.1-30.7-8.6-7.7-21.3-15.7-32.5-22.9-11.2-7.1-20.8-13.3-24.6-17.8-7-8.4-21.8-18.3-28-19.2,1.5,10,15.4,26.3,26.6,32.6,14.4,8.2,35.7,24.2,41.6,32.5,5.5,7.7,11.5,18,9.3,23.6-.5,1.2-1.4,2.1-2.6,2.4-3.3,1-7-1.6-19.4-10.1-9.7-6.7-23-15.9-40.8-26.4-10.4-6.1-24.2-11.9-37.5-17.5-14.3-6-27.9-11.7-36.1-17.4-15.8-10.9-44.3-29-47.8-31-2.9-1.5-24.1-1.7-32.4,5.4-1.5,1.3-3,2.4-4.4,3.4-7,5-11.2,8-2.8,28.4,8.3,20.3,31.2,44.6,42.1,56.3,3.9,4.1,5.8,6.2,6.6,7.4,1.2,1.8.6,3.6-.5,4.6-2.3,1.9-4.4,0-6.2-1.7-1.1-1-2.7-2.5-4.8-4.6-4-3.9-9.6-9.3-15.4-15.1-13.5-13.3-35.3-34.8-41.1-39.4-.7.7-1.8,1.7-2.6,2.6-3.6,3.8-8.5,9.1-14.3,8.6-3.2,1.1-12.3,14.3-19.7,25-7.5,10.9-16.1,23.3-24.9,33.6-12.6,14.7-13.3,27.2-13.8,36.4-.3,5.7-.6,10.1-3.6,13.2-1.3,1.3-3.3,1.3-4.6,0-1.3-1.3-1.3-3.3,0-4.6,1.3-1.3,1.5-4.9,1.7-9,.5-9.5,1.4-23.9,15.4-40.3,8.6-10,17-22.3,24.5-33,13.6-19.7,19.9-28.4,25.5-27.8,2.7.3,6.5-3.8,9.1-6.6,2.8-3,4.8-5.1,7.4-5.2,1.7,0,2.7,0,22.5,19.1-3.8-5.7-7-11.5-9.3-17.1-9.6-23.3-4.2-29.5,5-36.1,1.3-1,2.7-2,4-3.1,10.3-8.8,34.8-9,39.9-6,4.2,2.5,33,20.8,48.2,31.3,7.7,5.3,20.9,10.8,34.9,16.7,13.5,5.7,27.6,11.6,38.3,17.9,18,10.6,31.4,19.9,41.1,26.6,4.6,3.2,9,6.2,11.8,7.9-.9-2.9-3.2-7.7-8.1-14.7-4.9-6.9-24.5-22-39.5-30.6-13-7.4-31.3-28-30-41.5l.2-1.9,1.7-.8c9.7-4.4,31.9,13.8,37.8,20.8,3.1,3.7,12.8,9.9,23,16.4,11.4,7.3,24.3,15.5,33.3,23.5,10,8.8,13.6,21.5,17.1,33.8,1.7,6.1,3.4,12,5.8,17.2,2.5-3.4,2.9-6,3.5-9.2.3-1.4.5-2.8,1-4.4,1.2-4.4,4.3-6.5,6.8-8.2,2.4-1.6,3.6-2.5,3.8-4.5.7-7-1.2-12.3-6-16.4-3.9-3.3-2.3-9.8-.2-18,3.2-12.8,4.9-22.1-3.1-24.8-3.1-1-3.9-2.8-4-4.2-.4-3.5,3.4-5.7,8.1-8.5,1.2-.7,2.8-1.6,4-2.5-1.8-.6-3.6-.8-5.3-1.1-3.1-.5-6.4-1-7.9-3.8-1.5-2.7-.3-6.1.8-8.7,3.4-7.5,2.7-9.5,1.8-12.3-.2-.5-.4-1.1-.5-1.6-2.3-7.6-2-13.7-1.8-18.5.3-6.1.2-9.1-3.1-12.4-7.8-7.8-14.7-18.5-17.2-26.6-.7-2.3-.8-5.1-.9-8.3-.3-9.1-.7-19.4-13.7-24.9-1.1-.3-7-.7-11.7-1-8.4-.5-17.9-1.1-22.6-2.4-4.1-1.2-10-3.2-15.3-5-4.5-1.5-8.7-2.9-10-3.3-2.9-.7-8.2-2-17.5,1.9-2.4,2.5-12.5,12.3-23.4,11.6-10.3-.6-27.2-5.1-30.6-12.7-1-2.2-1.5-4.5-1.9-6.5-.2-.9-.4-2.1-.7-2.9-6.8,2.8-28.9,10.1-34.7,10.1,0,0,0,0,0,0-93.9-1.1-156.8,5.6-203.9,21.7-15.9,5.5-25.3,13.7-32.9,20.4-6.4,5.6-11.9,10.5-19.1,11.4l-3.2.4q-7.3.9-10.3,2.9c-.9.6-2.1,1.4-3.7,2.4-7.8,4.9-13.9,17.2-19.3,28-4.6,9.2-8.6,17.2-13.4,20.8-21.2,15.7-49.5,77.7-43.6,104.5,9.7,44.7,9.6,77.8,9.5,95.7,0,5.3,0,10.3.3,11.5.8,1.6.1,3.5-1.5,4.3-.5.2-1,.4-1.5.4ZM146.4,408.5s0,0,0,0c0,0,0,0,0,0ZM411.4,244.5h0ZM704.4,218.1h0Z" fill="rgb(255, 255, 255)"/>
      <path class="st0" d="M587.9,487.8c-24.7,0-56.3-6.3-73.9-17.8-6.9-4.5-11.3-14.6-11.8-16.4-2.7-8.4-6.3-45.2-6.3-53.1,0-1.5,0-3.4,0-5.4.2-7.8.5-19.5-2.8-23.1-3.8-4.2-3.8-13.3-2.5-20.5.7-3.7,2.2-10.1,5.4-11.7,15-7.7,59.3-1.7,91.3,3.5l2.3.4c21.7,3.5,51.8,18.7,56.6,26.8h0c4,6.8,4.4,17.9,4.7,27.6,0,2.6.2,5.1.3,7.3.7,11.2-23.3,65.8-29.7,70.9-1,.8-2,1.6-2.9,2.3-5.7,4.6-9.2,7.4-13.2,8.1-5.1.9-11,1.3-17.4,1.3ZM519.8,340.8c-9.4,0-17.3.9-21.8,3.2-.8.6-2.8,5.3-3.4,12.2-.6,6,.1,11,1.9,12.8,4.5,4.9,4.2,16.8,4,26.3,0,1.9,0,3.8,0,5.2,0,8,3.8,44.4,6.1,51.7.7,2.1,4.7,10.5,10,13.9,21,13.7,64.6,19.8,88.1,15.8,2.8-.5,5.9-3,11.1-7.1.9-.7,1.8-1.5,2.9-2.3,5.2-4.1,28.6-57.5,28-66.9-.1-2.3-.2-4.8-.3-7.4-.3-9.2-.6-19.6-4-25.4h0c-3.8-6.4-32.1-21.2-53.4-24.6l-2.3-.4c-12.8-2.1-44-7.1-66.7-7.1Z" fill="rgb(255, 255, 255)"/>
      <path class="st0" d="M442,341.4c-3.2,0-5.1-.9-5.8-2.6-.9-2.4,1.3-5.1,3.7-6.8,14.8-10.7,55.6-21.7,79.9-28.3,6.2-1.7,25.2,3.1,33,5.3,1.7.5,5.5.3,9.6,0,7.5-.3,16.8-.8,22.9,1.8,6.7,2.8,9.9,10.2,10.1,15.7.1,3.5-.9,6-2.9,7h0c-1.5.8-4.2,2.2-5.3,4.8-.2.6-.7,1-1.3,1.2-4.7,1.9-32.4-2.5-36-4.2-4.7-2.2-37.8-3.3-44.9-1-3,1-42.6,5.1-61.3,6.8-.7,0-1.3,0-1.9,0ZM523.3,306.4c-1.1,0-2,0-2.6.3-24.1,6.5-64.6,17.4-78.9,27.8-2.1,1.5-2.7,3-2.6,3.3,0,.2,1.1.8,4.5.5,21.9-2,58.3-5.9,60.6-6.7,7.9-2.6,41.8-1.4,47.2,1.1,3.9,1.8,29.4,5.3,33.3,4.2,1.5-3.4,4.9-5.1,6.5-6,.7-.3,1.3-1.7,1.2-4.1-.2-4.8-3-10.8-8.2-13-5.4-2.3-14.4-1.9-21.6-1.6-4.7.2-8.4.4-10.6-.2-12.9-3.6-23.4-5.6-28.8-5.6ZM591.9,332.3h0,0Z" fill="rgb(255, 255, 255)"/>
      <path class="st0" d="M711.2,386c19.2,0,39.9,7.9,49.6,15.4,6.5,5,7.2,13.4,7.2,13.5,1.9,27.7-6.7,67-11.9,76.9-1.1,2.2-4.9,6.4-6.9,7.1-3.1,1-5.8,1.5-8.6,1.5-4,0-8.1-1-13.3-2.3-.5-.1-1-.3-1.5-.4-8.5-24.2-26.9-65.4-38.5-79.8-1.4-3.4-1.3-18.9.7-22.2.4-.7.7-1.5,1-2.2.8-2,1.5-3.7,5.6-5.1,4.9-1.6,10.5-2.5,16.7-2.5h0M687.3,418.1s0,0,0,0c0,0,0,0,0,0M711.2,381.4c-6.3,0-12.5.8-18.2,2.7-7.7,2.6-7.9,7.2-9.2,9.3-3,5.1-2.9,23.9-.5,27.1,11.5,14,30.7,57.3,38.8,81.1,7.5,1.8,12.8,3.4,18.4,3.4s6.3-.5,10.1-1.8c3.8-1.3,8.3-6.9,9.5-9.3,5.7-10.8,14.4-51.3,12.4-79.4-.2-2.7-1.8-11.3-9-16.9-10.6-8.2-32.3-16.3-52.4-16.3h0Z" fill="rgb(255, 255, 255)"/>
      <path class="st0" d="M735.4,512.7c-4.1,0-7.7-.3-9.1-.8-1.2-.5-1.8-1.8-1.3-3,.5-1.2,1.8-1.8,3-1.3,2.8,1.1,21.5.4,24.9-1.3,3.8-1.8,12.7-10.6,13.6-12.6,6.2-14.2,8.2-38.8,8.7-46,.7-10.9,2.7-19,5.9-24.2.8-1.5,1.9-11.1,1.3-15.8-.4-2.8-1.2-3.6-2.2-4.7-.4-.4-.9-.8-1.3-1.4-15.8-20-68.4-27.1-88.7-23.1-4.1.8-9.1,3.7-10,5.8-.4.9-.3,3.5-.3,5.4,0,2,0,4-.2,5.7-.1.8-.4,1.9-.7,3.2-.5,2.3-1.9,8.3-1.2,9.6.6,1.1.2,2.5-.9,3.2-1.1.6-2.5.3-3.1-.8-1.5-2.6-.6-7.2.7-13,.3-1.2.5-2.2.6-2.9.2-1.2.2-3,.1-4.8,0-2.8,0-5.5.7-7.3,1.7-4,8.3-7.5,13.3-8.5,21.8-4.3,76.1,3.1,93.2,24.7.3.3.6.6.9,1,1.4,1.3,3,2.9,3.6,7.4.6,4.6-.2,16-1.9,18.9-2.8,4.5-4.6,11.9-5.2,22-.5,7.5-2.5,32.7-9,47.6-1.5,3.4-11.4,12.7-15.8,14.9-3,1.5-12.2,2.3-19.4,2.3Z" fill="rgb(255, 255, 255)"/>
      <path class="st0" d="M655.4,379.4c3.6,1.1,8.1,2.6,10.9,3.5,1.2.4,2.3.8,3.3,1.1-.3,3.9-.9,9.5-1.5,13.7-2-.9-4.3-1.6-6.7-1.6s-.3,0-.5,0c-1.5,0-2.7.4-3.8.9-.2-6.4-.9-12.5-1.7-17.6M650.1,373.5c-.5,0-.7.1-.6.3,1.6,6.1,3.6,19,2.9,32.6,3-.3,4.1-5.5,8.7-5.7.1,0,.2,0,.3,0,4.1,0,7.5,2.5,9.1,4.5,0,.1.2.2.3.2,1.8,0,3.6-20.7,3.7-24.7-4.3-1.2-20.9-7.2-24.4-7.2h0Z" fill="rgb(255, 255, 255)"/>
      <path class="st0" d="M565.4,634.2c-.8,0-1.5-.7-1.5-1.5,0-.9.6-1.6,1.5-1.6,15.8-.6,28.6-1.8,38.8-2.8,12.1-1.2,20.8-2,27.7-1.2.8,0,1.6.5,2.6.9,1.2.5,3.4,1.5,4.1,1,1.4-1,3.6-2.2,7.7-1.7,2.6.3,4.1,1.3,5.1,2,.3.2.6.4.7.4.8,0,1.4.8,1.4,1.7,0,.8-.9,1.5-1.7,1.4-.8,0-1.4-.5-2.1-.9-.9-.6-1.9-1.3-3.7-1.5-3-.3-4.5.4-5.6,1.2-2.1,1.5-4.9.3-7.1-.7-.7-.3-1.5-.6-1.8-.7-6.6-.8-15.2,0-27.1,1.2-10.3,1-23.1,2.2-39,2.8,0,0,0,0,0,0Z" fill="rgb(255, 255, 255)"/>
      <path class="st0" d="M668.2,375.8c-2.2,0-4.5-1.2-6.3-2.4-4.9-3.3-9.7-9.2-9.5-13.5h0c.2-3.3,8.9-12.2,13.6-13.1,1.3-.2,3.5-1.3,5.8-2.5,5-2.5,11.3-5.5,16.2-4.6,7.1,1.3,10.2,11.9,11.9,17.7.3,1,.5,1.8.7,2.3.3.7.6,1.4,1,2.2,1.3,2.8,2.5,5.4,1.8,7.2-.3.7-.8,1.2-1.4,1.5-2.9,1.3-5.4,1-8,.7-1.6-.2-3.3-.4-5.4-.2-5.3.4-15.5,3-18.4,4.3-.7.3-1.4.4-2.1.4ZM655.4,360c-.2,2.7,3.6,7.8,8.1,10.8,2.8,1.9,4.6,2.1,5.4,1.8,3.2-1.5,13.8-4.2,19.5-4.6,2.3-.2,4.2,0,6,.2,2.3.3,4.1.5,6.2-.4,0-.9-1.1-3.4-1.7-4.7-.4-.9-.8-1.7-1-2.4-.2-.6-.5-1.4-.8-2.5-1.4-4.7-4.2-14.6-9.5-15.5-3.9-.7-9.7,2.1-14.3,4.4-2.7,1.3-4.9,2.4-6.6,2.7-3.7.7-10.8,8.5-11.1,10.2ZM653.9,359.9h0,0Z" fill="rgb(255, 255, 255)"/>
      <path class="st0" d="M694.9,439.3l-9.2-16.2,1.3-1.3q.5-.5,11.4-3.6c5.6-1.6,14.1-3.9,23.1-6.3,34.8-9.2,37.3-8.1,38.6-7.5,5,2.2,6.3,16.9,5,21.9-.9,3.5-3.1,3.7-4,3.7-12.3-1-64,8.9-64.5,9l-1.7.3ZM692.4,425l5.1,8.8c9.1-1.7,49.9-9.3,63.1-8.8,1-3.4-.5-14.2-2.3-16.1-6-.7-53.2,12.4-65.8,16.1ZM758.4,408.9h0ZM758.1,408.8h0s0,0,0,0Z" fill="rgb(255, 255, 255)"/>
      <path class="st0" d="M612.2,469.6c-.9,0-1.7-.7-1.7-1.7v-1.9c-.6-18.1-.6-19.5,3.4-33.8,2.7-9.5,7.4-14.2,11.5-18.4,3.3-3.3,6.2-6.2,7.2-10.9,1.7-7.8-.3-19.1-2.4-23.1-2.3-4.5-8.7-9.2-11.5-11.3-.6-.4-1-.8-1.3-1-.7-.6-.8-1.7-.2-2.4.6-.7,1.7-.8,2.4-.2.2.2.6.5,1.1.9,3.2,2.4,9.8,7.3,12.5,12.5,2.4,4.7,4.6,16.7,2.7,25.5-1.3,5.7-4.6,9.1-8.1,12.6-4,4.1-8.2,8.3-10.6,16.9-3.9,13.7-3.8,14.8-3.3,32.8v1.9c0,1-.7,1.8-1.6,1.8,0,0,0,0,0,0Z" fill="rgb(255, 255, 255)"/>
      <path class="st0" d="M520.2,424.1c-4.7,0-10.4-.5-17.5-1.6-.6-.1-1.1-.7-1-1.3.1-.6.7-1.1,1.3-1,22.8,3.7,30.4.4,36.7-3.6.5-.3,1.3-.2,1.6.4.3.5.2,1.3-.4,1.6-4.7,3-10,5.6-20.8,5.6Z" fill="rgb(255, 255, 255)"/>
      <path class="st0" d="M434.5,409.6c-7.8,0-19.1-1.4-21.4-1.9-4.6-1.2-13.2-1-17.3-1h-1.2s0,0,0,0c-.4,0-.8-.3-.8-.8,0-.4.3-.8.8-.8h1.2c4.2,0,12.9-.2,17.7,1,2.8.7,20.9,2.8,26.4,1.5,4.8-1.1,8.2-3.8,10.7-5.9,1.9-1.5,3.3-2.6,4.6-2.6.4,0,.7.4.7.8,0,.4-.4.7-.8.7-.7,0-2.1,1.1-3.5,2.2-2.6,2.1-6.3,5-11.4,6.2-1.4.3-3.4.4-5.7.4Z" fill="rgb(255, 255, 255)"/>
      <path class="st0" d="M422.5,424.7c-.1,0-.2,0-.3,0-.4-.2-.5-.6-.4-1,1.8-3.8,7.7-5,12.9-6.1h.2c1.1-.3,2.8-.9,4.7-1.5,4.2-1.5,9.5-3.3,13.9-3.3.4,0,.8.4.8.8,0,.4-.3.8-.8.8,0,0-.1,0-.2,0-4.1,0-9.2,1.8-13.2,3.2-2,.7-3.7,1.3-4.9,1.5h-.2c-4.9,1.1-10.4,2.2-11.9,5.3-.1.3-.4.4-.7.4Z" fill="rgb(255, 255, 255)"/>
      <path class="st0" d="M356.3,459.1c-3.5,0-7.4-.8-9.2-2.2-1.1-.8-1.3-1.7-1.3-2.3.2-6,10.7-9.4,11.9-9.8,2.2-.7,9.1-1.5,12.2.2.9.5,1.4,1.1,1.6,1.8h0c1.5,5.2-8.1,10.9-10.7,11.7-1.3.4-2.9.6-4.5.6ZM364.4,446.3c-2.4,0-4.9.3-6,.7-5,1.6-10.2,4.7-10.3,7.7,0,0,0,.2.4.4,1.9,1.4,8.2,2.3,11.6,1.2,2.6-.8,10-5.9,9.2-8.9,0-.2-.3-.4-.5-.4-1-.5-2.7-.7-4.4-.7Z" fill="rgb(255, 255, 255)"/>
      <path class="st0" d="M506.4,436.6c-11.7,0-26.5-2.3-32.9-5-.4-.2-.6-.6-.4-1,.2-.4.6-.6,1-.4,9.8,4.1,37,6.6,45.1,3.2.4-.2.8,0,1,.4.2.4,0,.8-.4,1-2.9,1.2-7.8,1.8-13.4,1.8Z" fill="rgb(255, 255, 255)"/>
      <path class="st0" d="M462.4,189.7c-1.3,0-2.3,0-3-.1-19.7-2.5-46.5-18.1-62.5-27.4-5.9-3.4-10.5-6.1-12.4-6.7-6.3-2.1-18.6-1.7-30.4-1.4-6,.2-12.2.4-17.7.2l-7.8-.2,7.4-2.6c9.4-3.3,40.2-5.4,51.9-1.7,1.3.4,3.6,1.5,6.9,3,12.8,6,39.4,18.4,59.7,15.9,52.2-6.5,77.7-37.1,89.9-61.7l.3-.6.6-.2c0,0,5.9-1.7,9.2-4.1l.5-.4,1.2.2.4.6c.7,1,.5,3-1.5,14.2-.6,3.3-1.4,7.5-1.7,10.3,3.9-4.7,11.5-15.8,14-27.9l1.2-5.9,1.8,6.5c1.2,4.2,4,14.2,2.1,21.1-6.9,26-33.7,45.8-49,55.2-17.2,10.6-50,13.7-61,13.7ZM368,150.9c7.1,0,13.4.4,17.6,1.8,2.1.7,6.7,3.3,12.9,7,15.8,9.2,42.2,24.6,61.4,27,5.5.7,43.8-1.8,62.1-13.1,15-9.2,41.1-28.5,47.8-53.5,1.2-4.4.1-10.5-.9-15.1-4.4,13.8-13.8,25-15.7,26.5-.6.4-1.3.5-1.9.2-1.3-.8-1.3-1.9,1.1-15.5.6-3.4,1.4-7.8,1.7-10.3-2.8,1.5-6,2.6-7.3,3-12.6,25.1-38.8,56.1-91.9,62.7-21.1,2.6-48.2-10-61.3-16.1-3-1.4-5.4-2.5-6.5-2.9-6-1.9-17.7-2.2-28.6-1.5,3.2,0,6.4-.2,9.4-.2Z" fill="rgb(255, 255, 255)"/>
      <path class="st0" d="M557.5,200.8c-15.8,0-35.5-2.1-62.4-8.5l-5.1-1.2,5.1-1.5c.3,0,27.6-8.3,36.9-12.1l.5-.2h.5c7.9,2.4,39.2,6.1,51.4,3.9,17.6-3.2,32.7-8.9,45-17,5.6-3.7,16-10.6,21.4-28.9.7-2.5,0-7-5.2-9.8-.3.4-.8,1.2-1.1,1.9-1.3,2.5-3.2,5.8-6.9,6.9l-1.5.4-.3-1.6c-.9-5.2,3.8-13.4,8.4-17,1.1-.9,2.3-1.2,3.6-1,3.2.5,5.8,4.5,8.1,8.1.9,1.3,1.7,2.6,2.4,3.5,2.9,3.4,12.3,20.6,9.9,27.3-1.2,3.4-7,12.4-19.9,21.6-16,11.4-38,19.4-63.4,23.1-8.1,1.2-16.9,2.1-27.4,2.1ZM501,190.7c41,9.2,64.4,7.9,83.5,5.1,57.7-8.5,78.6-35.9,81-42.8,1.7-4.8-6-20.4-9.4-24.6-.8-1-1.7-2.3-2.6-3.7-1.8-2.7-4.2-6.5-6.2-6.8-.3,0-.8,0-1.4.4-3.5,2.8-6.8,8.4-7.4,12.2,1.5-1.2,2.5-3,3.3-4.6,1-1.9,2.4-4.3,4.6-3.2,6.2,3.2,8.2,9.1,7,13.3-5.6,19.3-16.6,26.5-22.5,30.4-12.6,8.3-28.1,14.2-46.1,17.4-12.3,2.2-43.5-1.4-52.2-3.7-7.2,2.9-23.3,7.9-31.6,10.5Z" fill="rgb(255, 255, 255)"/>
      <path class="st0" d="M185.8,241.5c-.8,0-1.5-.7-1.5-1.5-.8-23.5,13.9-29.9,44.6-40.9,10.6-3.8,20.5-12.1,31-20.8,15.3-12.8,31.1-26,51.4-27.4.9,0,1.6.6,1.6,1.4,0,.8-.6,1.6-1.4,1.6-19.3,1.3-34.7,14.3-49.7,26.7-10.7,8.9-20.8,17.4-31.9,21.4-32,11.5-43.2,17.4-42.5,37.9,0,.9-.6,1.6-1.5,1.6,0,0,0,0,0,0Z" fill="rgb(255, 255, 255)"/>
      <path class="st0" d="M221.9,670.2l-5.8-5.2c-17.9-16.1-24-35.6-28.5-49.8-2.6-8.3-4.9-15.5-8.6-19.2-17.5-17.6-20.6-51.7-22.1-68-.3-3.3-.5-5.9-.8-7.6-.3-1.8.9-3.5,2.7-3.8,1.8-.3,3.5.9,3.8,2.7.3,1.9.6,4.6.9,8,1.4,15.6,4.4,48,20.2,64,4.8,4.8,7.3,12.7,10.2,21.9,4,12.6,8.8,27.9,21.3,41.6.7-11.6,3.6-23.9,6-34.1,2.3-9.6,4.9-20.5,3.2-23.1-1-1.5-.5-3.5,1-4.5,1.5-1,3.5-.5,4.5,1,3.2,4.9.9,14.7-2.3,28.2-2.9,12.2-6.5,27.3-5.9,40.2l.4,7.8Z" fill="rgb(255, 255, 255)"/>
      <path class="st0" d="M511.2,592.8c-.3,0-.6-.2-.8-.5-.2-.4,0-.9.4-1.2,4.8-2.5,10.9-10.9,16.7-19.1,5.6-7.8,11.3-15.8,16.4-19.3,5.8-3.9,14.9-18.8,22.3-30.8,7.5-12.1,11.5-18.5,13.8-19.1.5-.1.9.2,1.1.6.1.5-.2.9-.6,1.1-1.7.4-7.6,9.9-12.7,18.3-7.9,12.7-16.8,27.2-22.8,31.3-4.8,3.3-10.5,11.2-16,18.9-6.2,8.7-12.1,16.9-17.3,19.6-.1,0-.3,0-.4,0Z" fill="rgb(255, 255, 255)"/>
      <path class="st0" d="M382.3,250.6l-3-.9c-17-5.4-31.1-18.7-38.7-25.8-1.6-1.5-2.8-2.6-3.7-3.4-8.8-7.4-18.4-46.5-19.1-51.2l-.8-5.3,3.5,4.1c13.1,15.4,24.3,13.2,24.4,13.1l1.7-.4.2,1.7c.6,5.7.4,9.6.2,12.7-.4,5.4-.6,9,3.8,18.4,5.5,11.7,14,18.5,20.8,23.9,4.7,3.8,8.4,6.7,9.6,10.2l1.1,2.9ZM322.1,174.1c2.9,12.2,10.6,38.7,16.9,44,1,.8,2.2,2,3.8,3.5,6.7,6.3,18.7,17.6,33,23.5-1.6-1.6-3.7-3.3-6.1-5.2-6.7-5.4-15.8-12.7-21.6-25-4.8-10.1-4.5-14.2-4.1-19.9.2-2.8.4-6,0-10.6-3.5.2-12-.6-21.9-10.2Z" fill="rgb(255, 255, 255)"/>
      <path class="st0" d="M319,144.6c-.5,0-1-.2-1.3-.7-.5-.7-.3-1.7.4-2.1,24.4-17.1,44.4-26.5,61.1-28.5,13.4-1.6,34.5.9,55,3.5,18.7,2.3,37.9,4.6,50.8,3.7,10.9-.8,27.9-6.2,47.7-15.2h.1c.8-.4,1.7,0,2,.7.4.8,0,1.7-.8,2h-.1c-20.2,9.2-37.5,14.7-48.8,15.6-13.2,1-32.6-1.4-51.4-3.7-20.3-2.5-41.2-5-54.2-3.5-16,2-36.1,11.4-59.7,28-.3.2-.6.3-.9.3Z" fill="rgb(255, 255, 255)"/>
      <path class="st0" d="M220.9,378.3c-.2,0-.3,0-.5,0-.8-.3-1.2-1.2-.9-2,5.3-14.9,13.6-25.4,19.2-32.3.9-1.1,1.6-2.1,2.3-3,15.1-19.6,16.6-41.2,17.5-55.4.2-3.6.5-6.7.8-9.5,3.4-24.4-10-40.3-18-49.8-1.9-2.3-3.5-4.2-4.6-5.9-.5-.7-.3-1.7.5-2.1.7-.5,1.7-.3,2.1.5,1,1.5,2.6,3.4,4.4,5.6,8.3,9.9,22.3,26.5,18.7,52.3-.4,2.6-.6,5.7-.8,9.2-1,14.6-2.5,36.7-18.2,57.1-.7.9-1.5,1.9-2.4,3-5.4,6.8-13.6,17-18.7,31.4-.2.6-.8,1-1.5,1Z" fill="rgb(255, 255, 255)"/>
      <path class="st0" d="M163.7,361.4c-.7,0-1.3-.5-1.5-1.2-4.2-17,1.7-31.2,6.8-43.7,1.6-4,3.2-7.7,4.4-11.5.3-.8,1.1-1.3,1.9-1,.8.3,1.3,1.1,1,1.9-1.2,3.8-2.8,7.7-4.5,11.7-5.2,12.6-10.6,25.7-6.7,41.8.2.8-.3,1.7-1.1,1.9-.1,0-.2,0-.4,0Z" fill="rgb(255, 255, 255)"/>
      <path class="st0" d="M616.5,833.2c-36.8,0-88.6-7.9-102.6-13.8-18.8-7.9-20.5-61.9-21.3-87.9-.1-3.3-.2-6.2-.3-8.4-.5-10.2.8-23.4,2.2-37.3,1.1-11.5,2.3-23.4,2.6-34.5,0-.8.7-1.5,1.5-1.5h0c.9,0,1.5.7,1.5,1.6-.3,11.2-1.4,23.2-2.6,34.7-1.4,13.8-2.7,26.8-2.2,36.8.1,2.2.2,5.1.3,8.4.7,23.3,2.4,78,19.4,85.1,17.3,7.2,97.2,17.9,127.2,11.5,2-.4,3.5-1.4,4.5-3.1,4.1-6.9-.7-23.1-4.5-36.2-.8-2.9-1.6-5.6-2.3-8.1-1.7-6.2-1.5-12.1-1.4-17.8.2-7.1.3-13.8-3-20.4-5.8-11.4-22.6-20.2-44.9-23.4-6.1-.9-11.8-1.2-17.3-1.6-19.5-1.2-35-2.2-41.9-25.2-6.6-21.9,4-60.1,10-71.6,4.2-8,27.5-12.6,57.4-17.7,10.3-1.7,19.1-3.3,23.8-4.7,12.6-3.9,36.4-8.3,45.6-.1.6.6.7,1.5.1,2.2-.6.6-1.5.7-2.2.1-6.8-6.1-26.6-4.2-42.7.8-4.9,1.5-13.8,3-24.2,4.8-20.5,3.5-51.4,8.8-55.2,16.1-5.8,11.1-16.2,48.1-9.8,69.3,6.3,20.9,20.1,21.8,39.1,23,5.6.4,11.4.7,17.6,1.6,23.2,3.4,40.9,12.7,47.2,25.1,3.7,7.2,3.5,14.7,3.4,21.9-.1,5.5-.2,11.2,1.3,16.9.7,2.5,1.5,5.2,2.3,8,4.2,14.3,9,30.6,4.2,38.6-1.4,2.4-3.6,3.9-6.5,4.5-6.8,1.5-16,2.1-26.4,2.1Z" fill="rgb(255, 255, 255)"/>
      <path class="st0" d="M612.1,684c-14.3,0-32.7-2.9-43.9-16.7-.6-.7-.5-1.8.2-2.4.7-.6,1.8-.5,2.4.2,15.7,19.3,47.4,15.5,57.9,14.3,4.1-.5,8.6-.3,13,0,10.8.6,21.1,1.1,28.1-8.1.6-.8,1.7-.9,2.4-.3.8.6.9,1.7.3,2.4-8.1,10.7-20.3,10-31.1,9.5-4.4-.2-8.5-.4-12.4,0-3.7.4-9.8,1.2-17.1,1.2Z" fill="rgb(255, 255, 255)"/>
      <path class="st0" d="M597.5,815.1c-30.9,0-62-11.2-68.4-16.3-9.2-7.4-13.7-36.4-15.9-59.4-2.3-24.1-2.6-50.2-1.3-54.7l.4-1.4,1.5.2c6.7.9,9.2,14.3,12.9,36.1,2.5,15,5.4,32,10.3,37.4l1.8,1.9c13.4,14.5,31.7,34.4,56.2,30,.9-.2,1.8.4,2,1.4.2.9-.5,1.8-1.4,2-2.6.5-5.2.7-7.7.7-22.4,0-39.1-18.1-51.6-31.7l-1.8-1.9c-5.6-6.1-8.5-22.9-11.2-39.1-2.2-12.8-4.8-28.4-8.4-32.3-1.4,15.7,2,96.7,16.3,108.3,6.7,5.4,51.7,21.1,87,13.5,2-.4,3.2-1.6,3.7-3.7,2.5-10.8-14.4-39-22.6-45.5-9.9-7.9-28.6-11.1-40.9-13.3-6.3-1.1-10.9-1.9-12.9-3-.8-.5-1.1-1.5-.7-2.4s1.5-1.1,2.4-.7c1.5.8,6.3,1.7,11.8,2.6,12.7,2.2,31.9,5.6,42.5,14,8.3,6.6,26.9,35.7,23.8,49-.8,3.4-3,5.6-6.3,6.3-6.9,1.5-14.2,2.1-21.6,2.1Z" fill="rgb(255, 255, 255)"/>
      <path class="st0" d="M558.4,395.7c0-.2-.1-.5-.2-.7l-1-3.2c-.8-2.5-1.8-5.1-3-7.7-1.5-3-3-5.2-4.7-7.1-2-2.2-4.4-4-7.1-5.1-2.6-1.1-5.5-1.7-8.6-1.8-6-.3-11.9,1-16.9,2.3-11.1,3-21,8-29.4,12.5-2.2,1.2-4.4,2.4-6.4,3.5l-9,5.1c-2.6,1.5-4.4,2.5-6.3,3.7l-1.7,1c-.2,0-.2.3-.1.5,0,.2.3.2.5.1l1.7-.9c2-1.1,3.8-2,6.5-3.5l9-5c2.1-1.1,4.2-2.3,6.4-3.4,8.2-4.3,18.1-9.1,28.8-11.9,0,0-.2,0-.2,0-3.1.9-5.6,2-7.7,2.9l-6.6,2.9s-2.4,1.1-6.4,2.9h0c-4.2,2-9.9,4.8-16.7,8.9l-5,3.3c0,0-.2.2-.2.3,0,.1,0,.3.2.3l13.3,6.2c3.1,1.5,6.4,3,9.8,4.5,0,0,0,0,0,0,4.4,2,9.5,4.1,15.3,5,1.7.2,3.4.3,5,.3s2.4,0,3.6-.2c2.8-.3,5.6-.9,8.5-1.9,5.2-1.8,10.3-4.5,15.2-8.2.4-.3.7-.6,1.1-.9l.9-.7c0,0,.2-.1.2-.2l2.7-2.7c0,0,.1-.1.1-.2,0-.1,0-.3-.4-.4l-1.3-.4c0,0-.2,0-.2,0-.2,0-.4-.1-.6-.2-.1,0-.2,0-.3,0-.2,0-.4,0-.7,0h-1c-.2,0-.3,0-.5,0h-.4c-.2.1-.3.2-.5.2h-.1c-1.1.4-2,.9-2.9,1.4-.7,1.7-1.6,3.3-2.9,4.7.9-.4,1.7-.9,2.5-1.4.2-.1.5-.3.7-.4.7-.4,1.5-.9,2.1-1.2,0,0-.2.1-.3.2-2.1,1.6-4.3,2.9-6.5,4.1-1.7,1.3-3.7,2.3-6.1,2.8-.6.2-1.2.5-1.8.7-2.6.8-5.2,1.4-7.8,1.7-2.5.2-5.1.2-7.8-.2-4.8-.7-9.2-2.4-14.4-4.7l-18.7-8.5.9-.6c6.7-4.2,12.5-7,16.4-8.9,4-1.9,6.3-3,6.4-3l6.4-2.9c2-.9,4.5-2,7.4-2.9.3-.1.6-.2,1-.3,0,0-.1.1-.2.2,2.1-1.1,4.5-1.8,7.5-1.8s6,.9,8.3,2.3c1.3.6,2.5,1.5,3.5,2.4.2.2.4.3.7.5,0,0,0,0-.1,0,2.3,2.5,3.6,5.8,4,9.2h0c0-.1,0-.2.1-.3.1-.3.3-.7.4-1.1.2-.6.2-1.2.3-1.7.2.4.4.7.6,1.1.8,1.5,1.7,3.1,2.7,4.6.9,1.2,1.8,2.2,2.8,3,1.2.9,2.5,1.6,3.8,2,.9.2,1.6.3,2.2.3h0c.4,0,.8,0,1.2,0h.6c.2-.2.4-.2.6-.3l.8-.2c.2,0,.3-.1.3-.2,0,0,0-.2,0-.3h0s0-.3,0-.3ZM555.7,394.9c-.2,0-.5,0-.7,0-.6,0-1.2-.1-1.6-.3-1-.3-2.1-.9-3-1.6-.9-.7-1.6-1.5-2.4-2.5-1-1.4-1.8-2.9-2.5-4.3-.3-.7-.7-1.3-1.1-2-1.3-2.3-2.8-4.3-4.5-5.8-3.4-3.1-7.7-5.1-12.2-5.5-.8,0-1.5-.1-2.3-.1-1.5,0-3,.1-4.3.4,3.9-.8,8.2-1.4,12.5-1.2,2.9.2,5.5.7,7.9,1.8,2.4,1.1,4.6,2.7,6.4,4.7,1.6,1.8,3,3.9,4.3,6.7,1.2,2.5,2.1,5,2.9,7.4l.7,2.4h-.1Z" fill="rgb(255, 255, 255)"/>
    </g>
    <path class="st0" d="M959.2,921.3l-9-2.4s0,0,0,0l-1.1-.3-9-1.6c-.8-.2-1.9-.3-3.2-.4-.5,0-1.1-.1-1.7-.2-.7,0-1.5-.2-2.3-.2-1.5-.2-3.2-.3-4.9-.5l-7.6-.3c-.3,0-.7,0-1,0-.8,0-1.6,0-2.4,0h-1.7c-.3-.3-.7-.7-1-1.1-2.6-2.7-5.8-5.1-9.3-7.4-3.3-1.9-6.8-3.6-10.4-5-6.4-2.4-13.2-4.2-21.6-5.7-5.2-.9-10.5-1.6-15.5-2.3-1.9-.3-3.8-.5-5.7-.8l-192.2-26.9h-.8c-.3-.2-.5-.1-.6,0-.3.2-.3.6-.3.8,0,0,0,0,0,0,0,0,0,.1,0,.2l-.2,7.9-.3,6.4-.5,6.2-.7,6c-.9,7.2-2.3,14.6-4.2,22-2.1,8.3-4.6,16.4-7.6,24.2l2.3-13.1c.2-1.1.4-2.3.5-3.5l.7-5c.1-.9.2-1.7.4-2.6.3-2.4.7-4.8.9-7.4,1.3-12.5,2.8-32.3.9-59.7l-.3-3.8c-1.8.9-3.6,1.5-5.4,1.7l.2,2.5c1.9,27,.5,46.4-.8,58.7-.2,2.6-.5,5-.8,7.3-.1.9-.2,1.8-.3,2.6l-.7,5c-.2,1.2-.3,2.3-.5,3.3l-2.2,12.4-2.5,11.8c-.2.9-.3,1.4-.4,1.6l-3,11.6c-.6-.2-.8-.2-.9.2-.2.4,0,.5.6.8-.1.4-.2.7,5.1,2.6.5.2.7,0,.8-.2.2-.4,0-.5-.6-.8l1.6-3c.9-1.7,1.8-3.5,2.7-5.4,1-1.9,1.9-4,2.9-6.1h0c4.8-10.9,8.8-22.4,11.7-34.3,1.9-7.5,3.3-15.1,4.3-22.6l.6-5.2.6-7.4.3-6.6v-3.3c0,0,188,26.2,188,26.2,1.9.3,3.7.5,5.6.8,5,.7,10.3,1.4,15.4,2.3,8,1.4,14.7,3.1,20.7,5.4,3.4,1.3,6.6,2.9,9.6,4.6,2.2,1.4,4.2,2.8,6,4.4-.5,0-1,0-1.5,0l-3.4.3c-.8,0-1.5.1-2.3.2-1.5.1-3,.3-4.5.4l-10.1,1.5-10.1,2.2-10,2.8-9.9,3.4-9.7,4.1-9.5,4.7-6.1,3.5c-.4.2-.7.4-1.1.6-.7.4-1.3.8-2,1.2l-3,2c-.7.5-1.4.9-2.1,1.4-1.3.8-2.6,1.7-3.9,2.6l-5.7,4.4c-.3.3-.7.5-1,.8-.6.5-1.3.9-1.8,1.5l-5.4,4.8c-.3.2-.5.4-.8.7-.6.6-1.3,1.2-1.9,1.8l-5.1,5.1c-.9.8-1.7,1.7-2.5,2.7l-4.8,5.4c-.5.6-1,1.2-1.5,1.8-.3.3-.5.7-.8,1-.5.7-1.1,1.3-1.6,2-1,1.2-2,2.4-2.9,3.7-5.4,7.2-10.7,15.2-16.3,24.5-4.5,7.7-9,16.2-13.9,26.1-6.1,12.6-11.9,25.7-17.6,38.3-2.3,5.3-4.7,10.5-7,15.8l-.5,1.1c-3.9,8.5-7.9,17.3-12.4,25.6,0,0,0,0,0,0-.7,1.3-1.4,2.5-2.1,3.7-1.6,1.2-3.4,2.6-5.6,4.2l-11.5,8.4c-1.2.9-2.5,1.8-3.8,2.6-.7.5-1.4,1-2.1,1.5-1.4,1-2.8,1.9-4.2,2.9-2.5,1.8-5.1,3.5-7.6,5.3l-15.2,9.9c-.7.4-1.3.8-2,1.2-.4.2-.7.5-1.1.7l-12.5,7.7c-1.3.8-2.7,1.6-4.1,2.4-.8.4-1.5.9-2.3,1.3-1.5.9-3.1,1.8-4.6,2.6-2.7,1.6-5.5,3.1-8.2,4.7l-16.4,8.8-16.8,8.3c-1.5.7-2.9,1.4-4.4,2-.8.4-1.6.7-2.4,1.1l-6.9,3.1c-.6.3-1.2.5-1.8.8-1.7.8-3.4,1.5-5.1,2.2l-14,5.8c-19.4,7.6-39,14.1-58.3,19.3l-17,4.2-19.1,3.9-17.5,2.8c-1.2.2-2.4.3-3.5.5l-13.8,1.6c-2,.2-4.1.5-6.2.6-.9,0-1.9.1-2.8.2-1.7.1-3.4.3-5.1.4l-7.9.5c-10.6.5-21.3.5-31.9.2-10.1-.3-20.5-1.1-32-2.4-11.7-1.3-22.1-3-32-5-22.1-4.4-43.1-10.6-62.6-18.2-10.4-4.1-20.5-8.6-30-13.4-9.9-5-19.5-10.6-28.7-16.4-10-6.5-18.9-12.8-26.9-19.4-4.9-4-10-8.4-15.1-13.1-1.6-4-2.4-8.4-2.2-12.6.1-2.1.5-4.3,1-6.4.5-1.9,1.2-3.8,2.1-5.9,1.7-3.6,3.8-7,6.3-10.1,4.1-5.1,9.1-9.7,15-13.8,4.2-2.9,8.5-5.4,13.2-7.5,1.9-.9,3.6-1.6,5.1-2.1,1.4-.6,2.6-1,3.7-1.5l3.1-1.2s4.3-1.6,12.2-4.3l2-.7c3.7-1.3,8-2.8,12.9-4.8,5.7-2.4,12.4-5.3,19.4-9.8l2.6-1.7c.6-.4,1.1-.8,1.7-1.3.3-.2.6-.5.9-.7,1.3-1,2.5-2.1,3.8-3.2.4-.4.9-.8,1.3-1.2.6-.5,1.1-1.1,1.6-1.6.3-.3.5-.6.8-.9l1.2-1.3,2.2-2.6c1.1-1.3,2.3-2.7,3.5-4.1,1.3-1.4,3-3.3,5-4.9,2-1.6,3.9-2.7,5.8-3.1.3-.1.6-.1.9-.2.2,0,.4,0,.5,0,.3,0,.6,0,.9,0,.2,0,.4,0,.6,0,.2,0,.4,0,.6.1.3,0,.6.1.9.2.4.1.9.3,1.5.6,1.7.8,3.5,2.3,5.5,4.6,3.5,4.1,6.7,8.8,9.4,13.9,2.9,5.5,5.3,11.4,7.3,16.6,1.4,3.5,2.6,7.1,4,10.9,3,8.6,6.2,17.6,10.7,26.5.6,1.3,1.4,2.6,2.1,3.9l.5.9c.2.3.3.5.5.8.3.5.6,1,.9,1.5l1.5,2.3c.2.3.4.5.5.8.3.5.7,1,1,1.5.6.8,1.2,1.6,1.8,2.3,1.3,1.5,2.7,2.9,4.1,4.1,1.7,1.4,3.3,2.5,5.1,3.3,2.1,1,4.2,1.6,6.2,1.7,2.2.1,4.5-.3,6.6-1.3,1.8-.9,3.6-2.2,5.2-4,1.2-1.4,2.4-3,3.6-5l.6-1.1c.8-1.3,1.6-2.7,2.2-4.1.7-1.4,1.4-2.8,2-4.3l.5-1.2c.2-.5.4-.9.5-1.4.5-1.4,1.1-2.8,1.5-4.2,1.1-3.5,2.1-7.3,3-11.7.7-3.5,1.3-7.4,1.8-12.1.9-8.8,1.1-17.5,1.2-24.8,0-7.9,0-16.2-.1-25.4-.4-17.9-1.4-35.5-3-52.6-.9-9.7-1.9-18.5-3-27-1.3-9.7-2.6-18.7-4.1-27.4-.5-3.1-1.1-6.2-1.6-9.2-.3-1.5-.5-3-.8-4.6-.7-3.8-1.5-8.7-1.9-13.7-.5-5.4-.4-9.7.2-13.7.7-4.9,2.3-9.1,4.6-12.4l1.5-2c0,0,.2-.2.3-.3l2.2,3.6c.2.3.4.7.5,1l.3.6c2.4,4.3,4.5,8.6,6.3,12.8,3.6,8.3,6.7,17.5,9.1,27.3,4.9,19.7,7,40.4,8.4,58,.5,6.5,1,13.1,1.4,19.5.9,13.1,1.8,26.7,3.3,40.1,1.2,11.1,2.7,20.8,4.5,29.8.4,2.1.9,4.2,1.3,6.2l.3,1.2c.4,1.8.8,3.5,1.3,5.2.2.7.4,1.4.5,2.1l.5,1.8,2.1,7.2c0,0,0,.2,0,.2,0,.3.1.6.4.8.1,0,.3.1.5,0l4.3-1.7c.2,0,.4-.2.6-.3l2-1.1c4.2-2.3,8.2-5.7,11.8-10,3-3.6,5.8-7.8,8.4-12.8,2.1-4,4.1-8.4,6.2-13.8,1.3-3.2,2.4-6.5,3.6-9.7.5-1.5,1.1-2.9,1.6-4.4,6.6-18.6,12.6-37.7,17.8-56.8,7.3-26.7,13.1-53.9,17.6-81.3-.9,0-1.7,0-2.6,0-4.5,27.1-10.5,54-17.8,80.5-5.2,19-11.2,38-17.9,56.5-.5,1.5-1.1,3-1.6,4.4-1.1,3.1-2.3,6.4-3.6,9.5-2.1,5.3-4,9.5-6.1,13.5-2.6,4.8-5.2,8.8-8.1,12.2-3.4,4-7,7.1-10.9,9.2l-1.9,1c-.2,0-.3.2-.5.2l-1.3.5-1.5-4.9-.5-1.8c-.2-.7-.4-1.4-.5-2.1-.4-1.7-.9-3.4-1.2-5.1l-.3-1.2c-.5-2-.9-4.1-1.3-6.1-1.8-8.9-3.2-18.5-4.4-29.5-1.4-13.2-2.3-26.7-3.1-39.7-.4-6.5-.8-13.2-1.3-19.7-1.3-17.8-3.4-38.7-8.3-58.7-2.5-10-5.6-19.4-9.2-27.9-1.8-4.3-4-8.7-6.4-13.1l-.3-.6c-.2-.4-.4-.7-.6-1.1l-4.5-7.4c0,0,0-.1-.1-.1-.5-.3-.9.1-1,.3,0,0,0,.1-.2.2l-2.6,2.6c-.2.2-.3.3-.5.5l-1.8,2.3c-2.7,3.8-4.5,8.5-5.3,14.1-.7,4.3-.8,8.9-.3,14.6.4,5.2,1.3,10.3,2,14.1.3,1.5.5,3,.8,4.6.5,3,1.1,6.1,1.6,9.2,1.4,8.7,2.7,17.6,4,27.2,1.1,8.4,2,17.2,2.9,26.9,1.5,16.8,2.5,34.4,2.9,52.3.2,9.1.2,17.4,0,25.2,0,6.8-.3,15.7-1.2,24.4-.5,4.6-1.1,8.3-1.7,11.7-.8,4.3-1.8,7.9-2.9,11.2-.4,1.3-.9,2.7-1.4,3.9-.2.5-.4.9-.5,1.4-.2.4-.4.8-.5,1.2-.6,1.3-1.1,2.6-1.8,3.9-1.7,3.2-3.5,6.6-5.8,9.1-1.2,1.3-2.4,2.3-3.7,2.9-1.4.6-2.8.9-4.2.8-3.3-.2-6.4-2.2-8.4-3.9-1.2-1-2.4-2.2-3.5-3.5-.5-.6-1-1.3-1.5-2-.3-.4-.6-.9-.9-1.4-.2-.3-.3-.5-.5-.8l-1.4-2.2c-.3-.4-.6-.9-.8-1.4-.2-.3-.3-.5-.5-.8l-.5-.9c-.7-1.2-1.4-2.4-1.9-3.6-4.3-8.5-7.4-17.3-10.4-25.9-1.3-3.7-2.6-7.4-4-11.1-2-5.3-4.5-11.5-7.5-17.2-2.9-5.4-6.3-10.4-10-14.9-1.8-2.1-4.1-4.4-7.1-5.9-.9-.4-1.6-.7-2.3-.9-.7-.2-1.3-.3-2-.4h-.5c-.2,0-.5,0-.7-.1-.6,0-1.1,0-1.7,0-.2,0-.4,0-.6,0-.6,0-1.2.1-1.7.3-2.6.7-5.1,2-7.7,4.1-2.2,1.8-4.1,3.8-5.6,5.4-1.3,1.4-2.5,2.8-3.6,4.2l-2.2,2.5-1.1,1.2c-.3.3-.6.6-.8.9-.5.5-.9,1-1.4,1.4-.5.4-.9.8-1.3,1.2-1.1,1-2.2,2-3.4,2.9-.3.2-.6.4-.9.7-.5.4-1,.8-1.5,1.1l-2.4,1.6c-6.3,4.1-12.6,6.9-18.5,9.3-4.8,1.9-9,3.4-12.7,4.7l-1.9.7c-7.9,2.7-12.3,4.3-12.3,4.3l-3.1,1.2c-1.1.4-2.3.9-3.8,1.5-1.5.6-3.3,1.3-5.3,2.2-5,2.3-9.6,4.9-14,8-6.4,4.5-11.8,9.3-16.2,14.8-2.8,3.4-5.2,7.2-7.1,11.2-1.1,2.4-1.9,4.6-2.5,6.8,0,0,0,0,0,0-.7,2.5-1.1,5.1-1.2,7.6,0,1.8,0,3.8.2,5.7-.7-.7-1.4-1.3-2-2-4.2-4.4-7.5-8.6-10.2-12.9-3.2-5.1-5.3-10.1-6.2-14.8-1-5.4-.2-10.8,2.2-15.2,2.2-4.1,5.8-7.8,11.1-11.2,3.7-2.4,7.8-4.5,11.8-6.4,1-.5,2-1,3-1.5l7.6-3.9c1.6-.9,3.3-1.8,4.8-2.7.9-.5,1.7-1,2.6-1.5.4-.2.9-.5,1.3-.7.8-.5,1.6-.9,2.4-1.4l3.6-2.2c.8-.5,1.6-1,2.3-1.5,1.6-1,3.3-2,4.9-3.1l7.1-4.8,6.9-5c9.5-7.2,18.4-14.6,26.2-22,8.3-7.9,16.2-16.2,23.5-24.9,7.2-8.6,14.1-17.8,20.5-27.5l4.6-7.2,4.4-7.5,4.4,6,2.4,3.5c6.5,9.5,12.4,19.3,17.5,29.1,5.2,10,9.9,20.4,14,30.9.3.7.6,1.5.8,2.2v.4c.5,4,.8,7.8.9,11.5,0,1,0,2,0,3,0,1.8,0,3.6,0,5.4,0,2.5,0,5.6,0,8.5,0,4.8.3,11,1.4,17.2,1.2,6.8,3.3,12.2,6.4,16.4,1.9,2.6,4.1,4.7,6.5,6.3,0,0,.2,0,.3.2.3.2.7.4,1.1.7l1.8,1c.6.4,1.1.7,1.6.4.4-.3.2-1,.2-1.1l-.9-7c-1.6-11.2-3.8-22.6-6.7-33.6-2.6-9.9-5.8-20.1-9.7-30.4-1.7-16.5-5.3-34.2-11.2-54.1-5.3-17.8-11.7-35.4-17.9-52.5-1.4-3.8-2.8-7.6-4.1-11.4-16.7-46.1-29-87.8-37.7-127.7-.2-1-.4-1.9-.6-2.9-.4-1.7-.8-3.4-1.1-5.2l-3.9-20.2-3.3-20.2c-.5-3.5-1-7-1.4-10.4-.2-1.9-.5-3.8-.8-5.7-.1-1-.2-1.9-.4-2.9-.2-1.7-.5-3.5-.7-5.2l-1.6-17.1c-.2-2.4-.5-4.8-.6-7.2l-1-16.2c-.2-2-.2-4.1-.2-6.1,0-.6,0-1.3,0-1.9v-4.7c-.9,0-1.7,0-2.5,0v4.8c.1.6.1,1.3.1,1.9,0,2,0,4.1.2,6.2l.9,16.2c.1,2.4.3,4.9.6,7.2l1.6,17.1c.2,1.8.4,3.5.7,5.3.1,1,.3,1.9.4,2.9.3,1.9.5,3.8.7,5.7.4,3.4.9,7,1.4,10.5l3.3,20.3,3.9,20.2c.3,1.8.7,3.5,1.1,5.2.2,1,.4,1.9.6,2.9,8.7,40,21,81.9,37.6,128.1,1.4,3.8,2.7,7.6,4.1,11.4,6.2,17,12.6,34.7,17.8,52.4,4.5,15.2,7.6,29,9.6,42.1-3.2-7.6-6.8-15.1-10.5-22.4-5.2-9.9-11.1-19.8-17.7-29.4l-2.4-3.6-6.4-8.8c-.1-.3-.4-.8-.9-.8h0c-.5,0-.9.6-1.1,1.1l-6,10.2-4.6,7.1c-6.4,9.6-13.2,18.7-20.3,27.1-7.3,8.6-15.1,16.8-23.3,24.6-7.8,7.3-16.5,14.6-25.9,21.7l-6.8,5-7,4.7c-1.5,1.1-3.2,2.1-4.8,3.1-.8.5-1.6,1-2.3,1.4l-3.6,2.2c-.8.5-1.6.9-2.4,1.4-.4.2-.9.5-1.3.7-.9.5-1.7,1-2.6,1.5-1.5.9-3.1,1.8-4.8,2.6l-7.5,3.9c-1,.5-2,1-3,1.5-4,2-8.2,4.1-12.1,6.6-2.7,1.8-5,3.5-6.9,5.4-2.3,2.2-4.1,4.6-5.4,7.1-1.5,2.7-2.4,5.6-2.8,8.6-.4,2.8-.3,5.8.2,9,1,5.3,3.1,10.5,6.6,16.1,2.8,4.5,6.3,8.9,10.6,13.5,2,2,4,4,6.1,6,.4,1.3.8,2.5,1.4,3.7,2.2,5.2,5.6,10,8.9,14.4,6.6,8.4,14.5,18.2,23.8,27.3l3.4,3.4c.7.8,1.5,1.5,2.3,2.2.4.4.9.8,1.3,1.2l7.4,6.7,9.8,8.1c.8.6,1.4,1.2,2.1,1.6l8.5,6.3c.3.2.5.4.8.6.5.3.9.7,1.4,1l11.3,7.6,12,7.2,7.5,4c14.2,7.5,28.9,13.7,43.7,18.6,16.2,5.2,32.8,8.9,49.2,11,11.6,1.6,24,2.4,37.7,2.4s10,0,15.2-.3c8.2-.3,16.8-.9,27.2-1.9,8.2-.8,16.9-1.9,27.5-3.4,18.9-2.7,38.5-6,55.9-9,7.8-1.4,18.2-3.3,28.4-6,10.3-2.7,19.5-5.9,28-9.8,18.7-8.5,35.7-20.7,50.6-31.4,16.1-11.6,32.3-23.5,48.1-35.4l11.9-9.1c4-3.1,7.9-6.1,11.9-9.2,9.6-7.8,16.5-14.2,22.1-21,5.2-6.2,10.1-13.4,14.9-22,17-13,29.8-24.5,40.3-36,6.6-7.2,12.3-14.6,17-22,5.1-8,9.2-16.2,12.3-24.5l.6-1.6,1.6-4.8c.2-.7.4-1.4.6-2.1.4-1.4.9-2.9,1.2-4.4.9-3.4,1.8-6.8,2.6-10.1l1.2-4.8c.9-3.5,1.8-7.1,2.8-10.6.4-1.4.8-2.8,1.2-4.1.2-.7.4-1.4.6-2l1.1-3c.3-1,.7-2,1.1-2.9l1.2-2.9c.3-.6.6-1.2.9-1.8l1.1-2.4c.1-.3.3-.6.5-.8,0-.2.2-.3.3-.5l1.5-2.7c.4-.6.7-1.1,1.1-1.6l1.5-2.2c.2-.3.4-.5.6-.8l2.2-2.8,2.1-2.2c4.8-5,11.2-9.2,20.2-13,5.9-2.5,12.1-4.6,18.1-6.6,1.6-.5,3.3-1.1,4.9-1.6l62.1-20.9c.1,0,.3-.2.3-.3,0-.1,0-.3,0-.4-.2-.3-.3-.5-.5-.8,0-.1-.2-.3-.3-.4l-2.8-4c0,0-.1-.2-.2-.2.7,0,1.4,0,2.2,0,.3,0,.7,0,1,0l7.5.2c1.7.1,3.4.3,4.8.4.8,0,1.6.1,2.3.2.6,0,1.1.1,1.7.1,1.2.1,2.3.2,3.1.4l9,1.3,10.2,2.1c.3,0,.5-.1.6-.4,0-.3,0-.5-.4-.6ZM324.2,1066c2.8,10.9,5.1,22.1,6.7,33.3l.3,2.4c-1.9-1.3-3.6-3-5.2-5.1-2.8-3.9-4.7-8.8-5.8-15.1-1.1-6-1.3-12.1-1.4-16.7,0-2.9,0-6,0-8.5,0-1.8,0-3.7-.1-5.5,0-1,0-2,0-3,0-.3,0-.5,0-.8,2.2,6.4,4.1,12.8,5.7,19.1ZM699.4,1138.1s0,0,0,0c-5.5,6.5-12.1,12.7-21.5,20.1-3.9,3.1-7.8,6.1-11.8,9.1l-12,9c-15.8,11.8-32,23.6-48.2,35.1-14,10-31.4,22.4-49.6,30.6-8.1,3.7-17,6.7-27,9.3-10.1,2.6-20.2,4.5-27.9,5.8l-5.9,1c-36.1,6-70.3,11.7-103.9,13.1-19.5.8-36.5.1-51.9-2-16.1-2-32.3-5.6-48.1-10.6-14.4-4.7-28.8-10.7-42.7-18l-7.1-3.7-12-7.1-11.1-7.4c-.5-.3-.9-.6-1.4-1-.3-.2-.5-.4-.7-.6l-8.3-6.2c-.6-.4-1.2-.9-2-1.6l-9.7-7.9-7.2-6.6c-.4-.4-.8-.8-1.3-1.2-.7-.7-1.5-1.4-2.2-2.1l-3.3-3.4c-9.1-8.8-16.5-18-23.4-26.6-1-1.3-1.9-2.5-2.7-3.6,2.4,2.1,4.6,3.9,6.7,5.6,8.2,6.7,17.1,13.1,27.3,19.7,9.3,5.9,19,11.6,29,16.7,9.6,4.9,19.8,9.4,30.4,13.6,19.7,7.8,41,14,63.3,18.5,9.9,2,20.5,3.7,32.3,5.1,11.6,1.3,22.2,2.1,32.4,2.4,10.7.3,21.5.3,32.2-.2l8-.4c1.7-.1,3.4-.2,5.2-.4.9,0,1.9-.2,2.8-.2,2.1-.1,4.2-.4,6.3-.6l13.8-1.6c1.2-.1,2.4-.3,3.7-.5l17.6-2.8,19.3-3.9,17.1-4.2c19.5-5.2,39.3-11.7,58.8-19.4l14.1-5.8c1.8-.7,3.5-1.5,5.2-2.3.6-.3,1.2-.5,1.8-.8l6.9-3.1c.8-.4,1.6-.7,2.4-1.1,1.5-.7,3-1.3,4.5-2l16.9-8.3,16.5-8.8c2.8-1.6,5.6-3.2,8.4-4.8,1.5-.9,3-1.7,4.5-2.6.8-.4,1.5-.9,2.3-1.3,1.4-.8,2.8-1.6,4.1-2.4l12.6-7.7c.4-.2.7-.4,1.1-.7.7-.4,1.4-.8,2-1.3l15.3-10c2.6-1.8,5.2-3.6,7.8-5.3,1.4-1,2.8-1.9,4.2-2.9.7-.5,1.4-1,2.1-1.4,1.3-.9,2.6-1.8,3.8-2.7l7.9-5.8c-2.5,3.7-5.1,7.1-7.7,10.2ZM857.1,939.9c-1.6.6-3.3,1.1-4.9,1.7-6,2-12.3,4.1-18.4,6.8-4.2,1.8-8,3.7-11.4,5.9-4,2.5-7.4,5.2-10.3,8.2l-.8.8c-.5.5-1,1.1-1.5,1.6l-2.4,3c-.2.3-.5.6-.7.9l-1.5,2.3c-.4.6-.8,1.2-1.2,1.8l-1.9,3.4c-.2.3-.4.6-.5,1l-1.2,2.5c-.3.7-.6,1.3-.9,2l-1.2,3.1c-3.3,8.6-5.6,17.6-7.7,26.3-2,8-4,16.3-6.9,24.2-2.9,8-6.9,15.9-11.8,23.6-4.6,7.1-10.1,14.3-16.5,21.4-8.7,9.5-18.7,18.9-31.7,29.2,3.3-6.6,6.3-13.4,9.2-19.9l.3-.8c2.4-5.5,4.8-11,7.2-16.5,5.4-12.5,11-25.4,16.9-37.7,4.8-9.8,9.2-18.3,13.5-25.9,5.4-9.2,10.5-17.1,15.8-24.2.9-1.2,1.9-2.5,2.8-3.7.5-.7,1.1-1.3,1.6-2,.3-.3.5-.7.8-1,.5-.6.9-1.2,1.4-1.8l4.7-5.4c.8-.9,1.6-1.8,2.4-2.6l5-5.1c.6-.6,1.2-1.2,1.8-1.7.3-.2.5-.5.8-.7l5.3-4.7c.5-.5,1.1-1,1.7-1.4.3-.3.7-.5,1-.8l5.5-4.3c1.2-.9,2.5-1.7,3.7-2.6.7-.5,1.4-.9,2.1-1.4l2.9-2c.6-.4,1.3-.8,1.9-1.2.4-.2.7-.4,1.1-.6l6-3.5,9.3-4.7,9.5-4.1,9.7-3.5,9.8-2.9,9.9-2.3,10-1.6c1.4-.2,2.8-.3,4.2-.4.8,0,1.6-.2,2.5-.2l3.3-.3c.7,0,1.4,0,2.1-.1.4,0,.8,0,1.2,0h.4c.4.4.7.8,1.1,1.2.2.3.4.5.7.8.1.1.2.3.3.4.2.2.4.4.5.6h0c0,.1-56.4,19.2-56.4,19.2Z" fill="rgb(255, 255, 255)"/>
  </g>
</svg>