<?xml version="1.0" encoding="utf-8"?>
<svg xmlns="http://www.w3.org/2000/svg" viewBox="0 0 1080 1080">
  <g class="cls-4">
    <g id="Diseño">
      <g class="cls-5" opacity="0.22">
        <rect class="cls-3" x="8.4" y="107.22" width="31.61" height="31.61" fill="rgb(246, 246, 247)" />
        <rect class="cls-2" x="98.17" y="195" width="31.61" height="31.61" fill="rgb(246, 246, 247)" opacity="0.2" />
        <rect class="cls-1" x="53.28" y="195" width="31.61" height="31.61" opacity="0.5" fill="rgb(246, 246, 247)" />
        <rect class="cls-2" x="143.06" y="238.9" width="31.61" height="31.61" fill="rgb(246, 246, 247)" opacity="0.2" />
        <rect class="cls-1" x="98.17" y="238.9" width="31.61" height="31.61" opacity="0.5" fill="rgb(246, 246, 247)" />
        <rect class="cls-3" x="53.29" y="238.9" width="31.61" height="31.61" fill="rgb(246, 246, 247)" />
        <rect class="cls-3" x="8.4" y="238.9" width="31.61" height="31.61" fill="rgb(246, 246, 247)" />
        <rect class="cls-3" x="53.28" y="151.11" width="31.61" height="31.61" fill="rgb(246, 246, 247)" />
        <rect class="cls-1" x="8.4" y="151.11" width="31.61" height="31.61" opacity="0.5" fill="rgb(246, 246, 247)" />
        <rect class="cls-3" x="143.06" y="282.79" width="31.61" height="31.61" fill="rgb(246, 246, 247)" />
        <rect class="cls-2" x="98.17" y="282.79" width="31.61" height="31.61" fill="rgb(246, 246, 247)" opacity="0.2" />
        <rect class="cls-1" x="53.28" y="282.79" width="31.61" height="31.61" opacity="0.5" fill="rgb(246, 246, 247)" />
        <rect class="cls-3" x="8.4" y="282.79" width="31.61" height="31.61" fill="rgb(246, 246, 247)" />
        <rect class="cls-1" x="53.28" y="370.57" width="31.61" height="31.61" opacity="0.5" fill="rgb(246, 246, 247)" />
        <rect class="cls-2" x="143.06" y="414.47" width="31.61" height="31.61" fill="rgb(246, 246, 247)" opacity="0.2" />
        <rect class="cls-1" x="98.17" y="414.47" width="31.61" height="31.61" opacity="0.5" fill="rgb(246, 246, 247)" />
        <rect class="cls-3" x="53.29" y="414.47" width="31.61" height="31.61" fill="rgb(246, 246, 247)" />
        <rect class="cls-3" x="8.4" y="414.47" width="31.61" height="31.61" fill="rgb(246, 246, 247)" />
        <rect class="cls-3" x="53.28" y="326.68" width="31.61" height="31.61" fill="rgb(246, 246, 247)" />
        <rect class="cls-1" x="8.4" y="326.68" width="31.61" height="31.61" opacity="0.5" fill="rgb(246, 246, 247)" />
        <rect class="cls-3" x="143.06" y="458.36" width="31.61" height="31.61" fill="rgb(246, 246, 247)" />
        <rect class="cls-2" x="98.17" y="458.36" width="31.61" height="31.61" fill="rgb(246, 246, 247)" opacity="0.2" />
        <rect class="cls-1" x="53.28" y="458.36" width="31.61" height="31.61" opacity="0.5" fill="rgb(246, 246, 247)" />
        <rect class="cls-3" x="8.4" y="458.36" width="31.61" height="31.61" fill="rgb(246, 246, 247)" />
        <rect class="cls-3" x="232.83" y="502.25" width="31.62" height="31.61" fill="rgb(246, 246, 247)" />
        <rect class="cls-1" x="187.94" y="502.25" width="31.61" height="31.61" opacity="0.5" fill="rgb(246, 246, 247)" />
        <rect class="cls-2" x="143.06" y="502.25" width="31.61" height="31.61" fill="rgb(246, 246, 247)" opacity="0.2" />
        <rect class="cls-1" x="98.17" y="502.25" width="31.61" height="31.61" opacity="0.5" fill="rgb(246, 246, 247)" />
        <rect class="cls-3" x="8.4" y="502.25" width="31.61" height="31.61" fill="rgb(246, 246, 247)" />
        <rect class="cls-3" x="143.06" y="546.14" width="31.61" height="31.61" fill="rgb(246, 246, 247)" />
        <rect class="cls-2" x="98.17" y="546.14" width="31.61" height="31.61" fill="rgb(246, 246, 247)" opacity="0.2" />
        <rect class="cls-3" x="8.4" y="546.14" width="31.61" height="31.61" fill="rgb(246, 246, 247)" />
        <rect class="cls-3" x="187.94" y="590.03" width="31.61" height="31.61" fill="rgb(246, 246, 247)" />
        <rect class="cls-2" x="143.06" y="590.03" width="31.61" height="31.61" fill="rgb(246, 246, 247)" opacity="0.2" />
        <rect class="cls-1" x="98.17" y="590.03" width="31.61" height="31.61" opacity="0.5" fill="rgb(246, 246, 247)" />
        <rect class="cls-3" x="53.28" y="590.03" width="31.61" height="31.61" fill="rgb(246, 246, 247)" />
        <rect class="cls-1" x="8.4" y="590.03" width="31.61" height="31.61" opacity="0.5" fill="rgb(246, 246, 247)" />
        <rect class="cls-2" x="232.83" y="633.93" width="31.61" height="31.61" fill="rgb(246, 246, 247)" opacity="0.2" />
        <rect class="cls-1" x="187.94" y="633.93" width="31.61" height="31.61" opacity="0.5" fill="rgb(246, 246, 247)" />
        <rect class="cls-3" x="143.06" y="633.93" width="31.61" height="31.61" fill="rgb(246, 246, 247)" />
        <rect class="cls-2" x="98.17" y="633.93" width="31.61" height="31.61" fill="rgb(246, 246, 247)" opacity="0.2" />
        <rect class="cls-1" x="53.28" y="633.93" width="31.61" height="31.61" opacity="0.5" fill="rgb(246, 246, 247)" />
        <rect class="cls-3" x="8.4" y="633.93" width="31.61" height="31.61" fill="rgb(246, 246, 247)" />
        <rect class="cls-1" x="232.83" y="721.71" width="31.61" height="31.61" opacity="0.5" fill="rgb(246, 246, 247)" />
        <rect class="cls-3" x="187.94" y="721.71" width="31.61" height="31.61" fill="rgb(246, 246, 247)" />
        <rect class="cls-3" x="143.06" y="721.71" width="31.61" height="31.61" fill="rgb(246, 246, 247)" />
        <rect class="cls-2" x="98.17" y="721.71" width="31.61" height="31.61" fill="rgb(246, 246, 247)" opacity="0.2" />
        <rect class="cls-1" x="53.28" y="721.71" width="31.61" height="31.61" opacity="0.5" fill="rgb(246, 246, 247)" />
        <rect class="cls-3" x="8.4" y="721.71" width="31.61" height="31.61" fill="rgb(246, 246, 247)" />
        <rect class="cls-1" x="98.17" y="765.6" width="31.61" height="31.61" opacity="0.5" fill="rgb(246, 246, 247)" />
        <rect class="cls-3" x="53.29" y="765.6" width="31.61" height="31.61" fill="rgb(246, 246, 247)" />
        <rect class="cls-2" x="143.06" y="677.82" width="31.61" height="31.61" fill="rgb(246, 246, 247)" opacity="0.2" />
        <rect class="cls-1" x="98.17" y="677.82" width="31.61" height="31.61" opacity="0.5" fill="rgb(246, 246, 247)" />
        <rect class="cls-3" x="53.28" y="677.82" width="31.61" height="31.61" fill="rgb(246, 246, 247)" />
        <rect class="cls-1" x="8.4" y="677.82" width="31.61" height="31.61" opacity="0.5" fill="rgb(246, 246, 247)" />
        <rect class="cls-2" x="98.17" y="809.5" width="31.61" height="31.61" fill="rgb(246, 246, 247)" opacity="0.2" />
        <rect class="cls-1" x="53.28" y="809.5" width="31.61" height="31.61" opacity="0.5" fill="rgb(246, 246, 247)" />
        <rect class="cls-3" x="8.4" y="809.5" width="31.61" height="31.61" fill="rgb(246, 246, 247)" />
        <rect class="cls-1" x="98.17" y="853.39" width="31.61" height="31.61" opacity="0.5" fill="rgb(246, 246, 247)" />
        <rect class="cls-3" x="53.29" y="853.39" width="31.61" height="31.61" fill="rgb(246, 246, 247)" />
        <rect class="cls-3" x="8.4" y="897.28" width="31.61" height="31.61" fill="rgb(246, 246, 247)" />
        <rect class="cls-1" x="8.4" y="941.17" width="31.61" height="31.61" opacity="0.5" fill="rgb(246, 246, 247)" />
        <rect class="cls-3" x="277.72" y="502.25" width="31.61" height="31.61" fill="rgb(246, 246, 247)" />
      </g>
    </g>
  </g>
</svg>