<?xml version="1.0" encoding="UTF-8"?>
<svg id="Capa_1" data-name="Capa 1" xmlns="http://www.w3.org/2000/svg" viewBox="0 0 48 48">
  <path d="M30.86,12.69h-13.71c-2.46,0-4.45,2-4.46,4.46v13.71c0,2.46,2,4.45,4.46,4.46h13.71c2.46,0,4.45-2,4.46-4.46v-13.71c0-2.46-2-4.45-4.46-4.46ZM24,30.86c-3.79,0-6.86-3.07-6.86-6.86s3.07-6.86,6.86-6.86,6.86,3.07,6.86,6.86-3.07,6.86-6.86,6.86ZM31.29,18.38c-.95,0-1.71-.77-1.71-1.71s.77-1.71,1.71-1.71,1.71.77,1.71,1.71-.77,1.71-1.71,1.71Z" style="fill: #e3e0e7;"/>
  <path d="M24,19.54c-2.46,0-4.46,2-4.46,4.46s2,4.46,4.46,4.46,4.46-2,4.46-4.46c0-2.46-2-4.45-4.46-4.46Z" style="fill: #e3e0e7;"/>
  <path d="M24,0C10.75,0,0,10.75,0,24s10.75,24,24,24,24-10.75,24-24S37.25,0,24,0ZM37.71,30.86c0,3.79-3.07,6.86-6.86,6.86h-13.71c-3.79,0-6.86-3.07-6.86-6.86v-13.71c0-3.79,3.07-6.86,6.86-6.86h13.71c3.79,0,6.86,3.07,6.86,6.86v13.71Z" style="fill: #e3e0e7;"/>
</svg>