<?xml version="1.0" encoding="UTF-8"?>
<svg id="Capa_1" data-name="Capa 1" xmlns="http://www.w3.org/2000/svg" viewBox="0 0 48 48">
  <rect x="16.88" y="26.37" width="2.04" height=".56" style="fill: #e3e0e7;"/>
  <path d="M24,0C10.75,0,0,10.75,0,24s10.75,24,24,24,24-10.75,24-24S37.25,0,24,0ZM32.28,39.39H15.71v-.26c0-1.67,1.35-3.02,3.02-3.02h10.53c1.67,0,3.02,1.35,3.02,3.02v.26ZM20.07,35.38v-1.84h7.86v1.84h-7.86ZM38.7,31.7c0,.61-.49,1.1-1.1,1.1H10.4c-.61,0-1.1-.49-1.1-1.1V12.91c0-.61.49-1.1,1.1-1.1h27.2c.61,0,1.1.49,1.1,1.1v18.79Z" style="fill: #e3e0e7;"/>
  <path d="M11.53,30.32h24.93V14.29H11.53v16.03ZM31.86,18.37c-.18-.1-.23-.33-.13-.5.1-.17.32-.23.5-.13l1.86,1.08c.18.1.24.33.13.5-.03.06-.08.1-.13.13l-1.86,1.08c-.06.03-.12.05-.18.05-.2,0-.37-.17-.37-.37,0-.13.07-.25.18-.32l1.31-.76-1.31-.76ZM28.68,20.99s0,0,0,0l1.29-3.96c.06-.19.27-.3.46-.24.19.06.3.27.24.46l-1.29,3.96c-.05.15-.19.25-.35.25-.04,0-.08,0-.11-.02-.19-.06-.3-.27-.24-.46ZM25.14,18.94c.03-.06.08-.1.13-.13l1.86-1.08c.18-.1.4-.04.5.13.1.18.04.4-.13.5,0,0,0,0,0,0l-1.31.76,1.31.76c.18.1.23.33.13.5-.07.11-.19.18-.32.18-.06,0-.13-.02-.18-.05l-1.86-1.08c-.18-.1-.24-.33-.13-.5ZM14.28,17.54c0-.69.56-1.25,1.25-1.25h4.74c.69,0,1.25.56,1.25,1.25v9.24c0,.69-.56,1.25-1.25,1.25h-4.74c-.69,0-1.25-.56-1.25-1.25v-9.24Z" style="fill: #e3e0e7;"/>
  <rect x="14.95" y="18.05" width="5.89" height="7.56" style="fill: #e3e0e7;"/>
</svg>