<?xml version="1.0" encoding="UTF-8"?>
<svg xmlns="http://www.w3.org/2000/svg" viewBox="0 0 1080 1080">
  <defs>
    <style>
      .cls-1 {
        mix-blend-mode: overlay;
        opacity: .1;
      }

      .cls-2 {
        opacity: .5;
      }

      .cls-2, .cls-3, .cls-4 {
        fill: #f6f6f7;
      }

      .cls-5 {
        isolation: isolate;
      }

      .cls-3 {
        opacity: .2;
      }
    </style>
  </defs>
  <g class="cls-5">
    <g id="Capa_1" data-name="Capa 1">
      <g class="cls-1">
        <rect class="cls-4" x="367.09" y="677.82" width="31.61" height="31.61"/>
        <rect class="cls-4" x="411.98" y="677.82" width="31.61" height="31.61"/>
        <rect class="cls-3" x="456.86" y="677.82" width="31.61" height="31.61"/>
        <rect class="cls-2" x="501.75" y="677.82" width="31.61" height="31.61"/>
        <rect class="cls-4" x="546.64" y="677.82" width="31.61" height="31.61"/>
        <rect class="cls-2" x="591.52" y="677.82" width="31.61" height="31.61"/>
        <rect class="cls-4" x="636.41" y="677.82" width="31.61" height="31.61"/>
        <rect class="cls-3" x="681.3" y="677.82" width="31.61" height="31.61"/>
        <rect class="cls-2" x="367.09" y="633.93" width="31.61" height="31.61"/>
        <rect class="cls-3" x="411.98" y="633.93" width="31.61" height="31.61"/>
        <rect class="cls-2" x="456.86" y="633.93" width="31.61" height="31.61"/>
        <rect class="cls-4" x="501.75" y="633.93" width="31.61" height="31.61"/>
        <rect class="cls-4" x="546.64" y="633.93" width="31.61" height="31.61"/>
        <rect class="cls-4" x="591.52" y="633.93" width="31.61" height="31.61"/>
        <rect class="cls-4" x="636.41" y="633.93" width="31.61" height="31.61"/>
        <rect class="cls-3" x="681.3" y="633.93" width="31.61" height="31.61"/>
        <rect class="cls-2" x="367.09" y="590.03" width="31.61" height="31.61"/>
        <rect class="cls-4" x="411.98" y="590.03" width="31.61" height="31.61"/>
        <rect class="cls-3" x="456.86" y="590.03" width="31.61" height="31.61"/>
        <rect class="cls-2" x="501.75" y="590.03" width="31.61" height="31.61"/>
        <rect class="cls-4" x="546.63" y="590.03" width="31.61" height="31.61"/>
        <rect class="cls-2" x="591.52" y="590.03" width="31.61" height="31.61"/>
        <rect class="cls-4" x="636.41" y="590.03" width="31.61" height="31.61"/>
        <rect class="cls-4" x="367.09" y="546.14" width="31.61" height="31.61"/>
        <rect class="cls-3" x="411.98" y="546.14" width="31.61" height="31.61"/>
        <rect class="cls-4" x="681.3" y="590.03" width="31.61" height="31.61"/>
        <rect class="cls-3" x="681.3" y="546.14" width="31.61" height="31.61"/>
        <rect class="cls-2" x="456.86" y="546.14" width="31.61" height="31.61"/>
        <rect class="cls-4" x="501.75" y="546.14" width="31.61" height="31.61"/>
        <rect class="cls-2" x="546.64" y="546.14" width="31.61" height="31.61"/>
        <rect class="cls-4" x="591.52" y="546.14" width="31.61" height="31.61"/>
        <rect class="cls-3" x="636.41" y="546.14" width="31.61" height="31.61"/>
        <rect class="cls-2" x="367.09" y="502.25" width="31.61" height="31.61"/>
        <rect class="cls-4" x="411.98" y="502.25" width="31.61" height="31.61"/>
        <rect class="cls-3" x="456.86" y="502.25" width="31.61" height="31.61"/>
        <rect class="cls-2" x="501.75" y="502.25" width="31.61" height="31.61"/>
        <rect class="cls-4" x="546.63" y="502.25" width="31.61" height="31.61"/>
        <rect class="cls-2" x="591.52" y="502.25" width="31.61" height="31.61"/>
        <rect class="cls-4" x="636.41" y="502.25" width="31.61" height="31.61"/>
        <rect class="cls-4" x="367.09" y="458.36" width="31.61" height="31.61"/>
        <rect class="cls-3" x="411.98" y="458.36" width="31.61" height="31.61"/>
        <rect class="cls-4" x="681.3" y="502.25" width="31.61" height="31.61"/>
        <rect class="cls-3" x="681.3" y="458.36" width="31.61" height="31.61"/>
        <rect class="cls-2" x="456.86" y="458.36" width="31.61" height="31.61"/>
        <rect class="cls-4" x="501.75" y="458.36" width="31.61" height="31.61"/>
        <rect class="cls-2" x="546.64" y="458.36" width="31.61" height="31.61"/>
        <rect class="cls-4" x="591.52" y="458.36" width="31.61" height="31.61"/>
        <rect class="cls-3" x="636.41" y="458.36" width="31.61" height="31.61"/>
        <rect class="cls-4" x="367.09" y="414.47" width="31.61" height="31.61"/>
        <rect class="cls-4" x="411.98" y="414.46" width="31.61" height="31.61"/>
        <rect class="cls-3" x="456.86" y="414.46" width="31.61" height="31.61"/>
        <rect class="cls-2" x="501.75" y="414.46" width="31.61" height="31.61"/>
        <rect class="cls-4" x="546.64" y="414.47" width="31.61" height="31.61"/>
        <rect class="cls-2" x="591.52" y="414.46" width="31.61" height="31.61"/>
        <rect class="cls-4" x="636.41" y="414.46" width="31.61" height="31.61"/>
        <rect class="cls-3" x="681.3" y="414.46" width="31.61" height="31.61"/>
        <rect class="cls-2" x="367.09" y="370.57" width="31.61" height="31.61"/>
        <rect class="cls-3" x="411.98" y="370.57" width="31.61" height="31.61"/>
        <rect class="cls-2" x="456.86" y="370.57" width="31.61" height="31.61"/>
        <rect class="cls-4" x="501.75" y="370.57" width="31.61" height="31.61"/>
        <rect class="cls-4" x="546.64" y="370.57" width="31.61" height="31.61"/>
        <rect class="cls-4" x="591.52" y="370.57" width="31.61" height="31.61"/>
        <rect class="cls-4" x="636.41" y="370.57" width="31.61" height="31.61"/>
        <rect class="cls-3" x="681.3" y="370.57" width="31.61" height="31.61"/>
      </g>
    </g>
  </g>
</svg>